<svg width="126" height="59" viewBox="0 0 126 59" fill="none" xmlns="http://www.w3.org/2000/svg">
<g clip-path="url(#clip0_1_785)">
<path d="M53.4713 33.2722V10.4941H49.7361V33.2722H53.4713Z" fill="#C4C4C4"/>
<path d="M55.7573 25.6788C55.7573 30.3324 58.8801 33.6389 63.6256 33.6389C68.371 33.6389 71.4938 30.3324 71.4938 25.6788C71.4938 21.0252 68.371 17.7188 63.6256 17.7188C58.8801 17.7188 55.7573 21.0252 55.7573 25.6788ZM59.5231 25.6788C59.5231 22.954 61.1457 21.0559 63.6256 21.0559C66.1054 21.0559 67.728 22.954 67.728 25.6788C67.728 28.373 66.1054 30.3018 63.6256 30.3018C61.1457 30.3018 59.5231 28.373 59.5231 25.6788Z" fill="#C4C4C4"/>
<path d="M72.7501 25.3734C72.7501 29.782 75.5973 32.966 79.8529 32.966C82.0573 32.966 83.9554 32.0782 84.9045 30.6086V33.1803C84.9045 35.6602 83.3431 37.3135 80.7408 37.3135C78.414 37.3135 76.822 36.1807 76.6077 34.1907H72.8419C73.3318 38.1401 76.3627 40.7118 80.5265 40.7118C85.425 40.7118 88.5478 37.4972 88.5478 32.5068V18.1481H85.2413L85.027 20.1993C84.1085 18.6073 82.2103 17.6582 79.9754 17.6582C75.6586 17.6582 72.7501 20.9341 72.7501 25.3734ZM76.5464 25.2815C76.5464 22.771 78.1384 20.9341 80.4959 20.9341C83.0676 20.9341 84.782 22.8016 84.782 25.2815C84.782 27.792 83.0676 29.7208 80.4959 29.7208C78.1691 29.7208 76.5464 27.8226 76.5464 25.2815Z" fill="#C4C4C4"/>
<path d="M90.3961 25.6788C90.3961 30.3324 93.5189 33.6389 98.2644 33.6389C103.01 33.6389 106.133 30.3324 106.133 25.6788C106.133 21.0252 103.01 17.7188 98.2644 17.7188C93.5189 17.7188 90.3961 21.0252 90.3961 25.6788ZM94.1619 25.6788C94.1619 22.954 95.7845 21.0559 98.2644 21.0559C100.744 21.0559 102.367 22.954 102.367 25.6788C102.367 28.373 100.744 30.3018 98.2644 30.3018C95.7845 30.3018 94.1619 28.373 94.1619 25.6788Z" fill="#C4C4C4"/>
<path d="M110.175 15.0545C111.399 15.0545 112.41 14.0748 112.41 12.8196C112.41 11.5949 111.399 10.6152 110.175 10.6152C108.92 10.6152 107.97 11.5949 107.97 12.8196C107.97 14.0748 108.92 15.0545 110.175 15.0545ZM108.307 33.2708H112.042V18.1467H108.307V33.2708Z" fill="#C4C4C4"/>
<path d="M115.315 40.2819H118.958V31.189C119.907 32.7504 121.959 33.6689 124.224 33.6689C128.694 33.6689 131.358 30.2399 131.296 25.5251C131.204 20.7797 128.48 17.6875 124.193 17.6875C121.897 17.6875 119.815 18.6978 118.897 20.4429L118.683 18.1467H115.315V40.2819ZM119.111 25.7088C119.111 22.984 120.764 21.0858 123.367 21.0858C125.969 21.0858 127.531 23.0146 127.531 25.7088C127.531 28.403 125.969 30.3012 123.367 30.3012C120.764 30.3012 119.111 28.4336 119.111 25.7088Z" fill="#C4C4C4"/>
<path fill-rule="evenodd" clip-rule="evenodd" d="M-12.3378 25.8639L-12.3352 25.5971L-12.3299 25.3302L-12.3219 25.0633L-12.3111 24.7964L-12.2976 24.5296L-12.2813 24.2627L-12.2623 23.9959L-12.2406 23.7292L-12.2161 23.4625L-12.1888 23.1959L-12.1589 22.9297L-12.1262 22.6635L-12.0907 22.3975L-12.0525 22.1318L-12.0116 21.8664L-11.9679 21.6014L-11.9215 21.3365L-11.8723 21.0721L-11.8205 20.808L-11.7659 20.5443L-11.7085 20.281L-11.6485 20.0183L-11.5857 19.756L-11.5203 19.4942L-11.4521 19.233L-11.3812 18.9723L-11.3076 18.7122L-11.2313 18.4527L-11.1523 18.194L-11.0707 17.9359L-10.9863 17.6784L-10.8993 17.4217L-10.8096 17.1657L-10.7173 16.9105L-10.6223 16.6561L-10.5247 16.4026L-10.4244 16.1499L-10.3215 15.8981L-10.216 15.6473L-10.1079 15.3973L-9.99716 15.1482L-9.88383 14.9003L-9.76792 14.6533L-9.64942 14.4073L-9.52836 14.1624L-9.40473 13.9187L-9.27857 13.676L-9.14987 13.4344L-9.01864 13.1942L-8.88491 12.955L-8.74865 12.717L-8.60993 12.4803L-8.46871 12.2448L-8.32503 12.0107L-8.17888 11.7779L-8.0303 11.5464L-7.87929 11.3164L-7.72585 11.0875L-7.57002 10.8603L-7.41179 10.6344L-7.25119 10.41L-7.08823 10.1872L-6.92292 9.96568L-6.75528 9.74591L-6.58531 9.52761L-6.41305 9.31082L-6.2385 9.09571L-6.06168 8.88223L-5.8826 8.6704L-5.70128 8.46023L-5.51773 8.25176L-5.33199 8.04502L-5.14405 7.84002L-4.95392 7.63679L-4.76166 7.43533L-4.56725 7.23569L-4.37072 7.03788L-4.17209 6.84191L-3.97137 6.64782L-3.76859 6.45562L-3.56376 6.26535L-3.3569 6.077L-3.14804 5.89061L-2.93718 5.7062L-2.72434 5.52377L-2.50957 5.34338L-2.29286 5.16502L-2.07424 4.98872L-1.85373 4.81449L-1.63134 4.64235L-1.40718 4.47234L-1.18102 4.30444L-0.953134 4.13872L-0.723517 3.97516L-0.492168 3.81379L-0.258958 3.65463L-0.0241489 3.49768L0.212391 3.34299L0.450661 3.19055L0.69066 3.0404L0.932125 2.89254L1.17532 2.74698L1.41998 2.60377L1.66624 2.4629L1.91409 2.32438L2.16341 2.18825L2.41419 2.0545L2.66644 1.92317L2.92015 1.79425L3.17532 1.66778L3.43183 1.54376L3.6898 1.4222L3.94897 1.30314L4.2096 1.18657L4.47143 1.07251L4.73459 0.960973L4.99895 0.851981L5.26451 0.745532L5.53126 0.641638L5.79922 0.540341L6.06824 0.441612L6.33845 0.345505L6.60973 0.251994L6.88208 0.161106L7.15536 0.0728658L7.4297 -0.012738L7.70511 -0.0956801L7.98145 -0.175946L8.25859 -0.253537L8.53679 -0.328452L8.81579 -0.400665L9.09559 -0.470163L9.37619 -0.536931L9.65772 -0.600998L9.93992 -0.662309L10.2228 -0.720892L10.5064 -0.776719L10.7908 -0.829777L11.0758 -0.88008L11.3614 -0.927601L11.6476 -0.97234L11.9343 -1.0143L12.2216 -1.05344L12.5094 -1.0898L12.7977 -1.12334L13.0864 -1.15409L13.3755 -1.18199L13.665 -1.20708L13.955 -1.22935L14.2451 -1.24877L15.8057 -1.33789L15.8948 6.18114L15.9458 6.18056L16.1613 6.18025L16.3768 6.18206L16.5923 6.18599L16.8081 6.19205L17.0237 6.20022L17.2395 6.21049L17.4553 6.22291L17.671 6.23746L17.8867 6.25412L18.1025 6.27291L18.318 6.29384L18.5335 6.31689L18.7487 6.34206L18.964 6.36936L19.1789 6.39879L19.3938 6.43034L19.6083 6.46403L19.8228 6.49984L20.0368 6.53776L20.2507 6.57782L20.4643 6.61999L20.6774 6.66429L20.8903 6.71069L21.1028 6.75921L21.3148 6.80983L21.5266 6.86257L21.7379 6.91742L21.9486 6.97437L22.1589 7.03342L22.3688 7.09456L22.5781 7.15778L22.7868 7.2231L22.995 7.29051L23.2026 7.35999L23.4096 7.43154L23.6159 7.50517L23.8217 7.58084L24.0267 7.65859L24.231 7.73838L24.4347 7.82023L24.6376 7.90411L24.8396 7.99002L25.041 8.07797L25.2416 8.16794L25.4413 8.25992L25.6402 8.3539L25.8382 8.44988L26.0354 8.54787L26.2316 8.64783L26.4269 8.74977L26.6212 8.85368L26.8146 8.95956L27.007 9.06738L27.1984 9.17714L27.3887 9.28883L27.578 9.40248L27.7662 9.51803L27.9534 9.63543L28.1393 9.75483L28.3242 9.87596L28.5079 9.99909L28.6905 10.1241L28.8718 10.2508L29.0521 10.3795L29.231 10.51L29.4086 10.6423L29.5851 10.7765L29.7601 10.9124L29.9339 11.0501L30.1063 11.1895L30.2775 11.3307L30.4472 11.4738L30.6156 11.6185L30.7827 11.7649L30.9483 11.9131L31.1122 12.063L31.2749 12.2146L31.4361 12.3678L31.5958 12.5226L31.754 12.6792L31.9107 12.8373L32.0657 12.9972L32.2193 13.1585L32.3712 13.3214L32.5216 13.4859L32.6703 13.6521L32.8174 13.8197L32.9629 13.9888L33.1067 14.1595L33.2488 14.3316L33.3893 14.5053L33.528 14.6804L33.6649 14.8569L33.8002 15.0348L33.9337 15.2143L34.0653 15.395L34.1952 15.5773L34.3233 15.7608L34.4496 15.9456L34.5741 16.1318L34.6967 16.3194L34.8174 16.5082L34.9361 16.6983L35.0532 16.8896L35.1682 17.0822L35.2813 17.276L35.3925 17.471L35.5017 17.6672L35.609 17.8647L35.7143 18.0631L35.8176 18.2628L35.9189 18.4635L36.0182 18.6653L36.1155 18.8683L36.2108 19.0722L36.304 19.2772L36.3952 19.4833L36.4842 19.6903L36.5712 19.8983L36.6561 20.1072L36.7389 20.3171L36.8195 20.5278L36.8981 20.7396L36.9745 20.952L37.0488 21.1656L37.1209 21.3797L37.1909 21.5948L37.2587 21.8106L37.3243 22.0272L37.3877 22.2446L37.4489 22.4626L37.5079 22.6814L37.5647 22.9009L37.6191 23.121L37.6716 23.3418L37.7216 23.5632L37.7694 23.7852L37.8151 24.0076L37.8583 24.2308L37.8993 24.4545L37.9382 24.6786L37.9747 24.9032L38.0089 25.1283L38.0408 25.3539L38.0704 25.5798L38.0977 25.8062L38.1227 26.0329L38.1453 26.26L38.1657 26.4874L38.1838 26.7151L38.1995 26.9431L38.2128 27.1714L38.2239 27.3998L38.2327 27.6287L38.2389 27.8575L38.243 28.0866L38.2446 28.3158L38.244 28.5451L38.2409 28.7746L38.2354 29.0042L38.2277 29.2337L38.2176 29.4633L38.2052 29.6929L38.1903 29.9226L38.1732 30.1522L38.1536 30.3817L38.1316 30.6112L38.1074 30.8405L38.0806 31.0696L38.0516 31.2987L38.0203 31.5275L37.9865 31.7562L37.9505 31.9846L37.912 32.2128L37.8711 32.4406L37.828 32.6683L37.7825 32.8956L37.7345 33.1226L37.6842 33.3491L37.6317 33.5754L37.5768 33.8012L37.5194 34.0265L37.4598 34.2514L37.3979 34.4758L37.3336 34.6997L37.2671 34.923L37.1981 35.146L37.1268 35.3682L37.0533 35.5899L36.9774 35.8109L36.8991 36.0313L36.8187 36.2511L36.7359 36.4701L36.6509 36.6884L36.5636 36.906L36.474 37.1228L36.3821 37.3389L36.288 37.5543L36.1917 37.7686L36.093 37.9822L35.9921 38.1949L35.8891 38.4067L35.7837 38.6177L35.6762 38.8276L35.5664 39.0367L35.4546 39.2446L35.3404 39.4518L35.2242 39.6577L35.1057 39.8627L34.9851 40.0666L34.8624 40.2693L34.7375 40.4711L34.6104 40.6716L34.4813 40.871L34.3502 41.0692L34.2168 41.2662L34.0814 41.462L33.9439 41.6566L33.8044 41.8499L33.6628 42.042L33.5192 42.2327L33.3735 42.4221L33.2259 42.6101L33.0763 42.7969L32.9247 42.9821L32.7711 43.166L32.6155 43.3485L32.458 43.5295L32.2985 43.7091L32.1372 43.8872L31.974 44.0638L31.809 44.2388L31.6419 44.4124L31.4731 44.5843L31.3023 44.7547L31.1298 44.9234L30.9556 45.0906L30.7795 45.2562L30.6016 45.4201L30.4219 45.5823L30.2405 45.7427L30.0575 45.9016L29.8726 46.0588L29.6861 46.2141L29.4979 46.3676L29.3081 46.5195L29.1165 46.6695L28.9234 46.8176L28.7286 46.9639L28.5323 47.1085L28.3345 47.2512L28.1349 47.3919L27.9339 47.5308L27.7315 47.6678L27.5276 47.8028L27.322 47.9359L27.1152 48.0671L26.9069 48.1963L26.6971 48.3235L26.4858 48.4486L26.2732 48.5719L26.0595 48.693L25.8441 48.812L25.6277 48.9292L25.4097 49.044L25.1906 49.1569L24.9702 49.2678L24.7486 49.3764L24.5258 49.4829L24.3017 49.5874L24.0765 49.6896L23.8502 49.7897L23.6227 49.8876L23.3942 49.9833L23.1646 50.0769L22.9339 50.1682L22.7021 50.2572L22.4693 50.3441L22.2356 50.4287L22.0008 50.5111L21.7652 50.5911L21.5286 50.6689L21.291 50.7444L21.0526 50.8176L20.8134 50.8886L20.5734 50.9571L20.3325 51.0234L20.0909 51.0874L19.8483 51.1489L19.6053 51.2082L19.3614 51.2651L19.1168 51.3196L18.8716 51.3718L18.6257 51.4216L18.3792 51.4689L18.1321 51.5139L17.8846 51.5564L17.6363 51.5966L17.3876 51.6344L17.1383 51.6697L16.8887 51.7025L16.6386 51.733L16.388 51.761L16.1371 51.7865L15.8857 51.8097L15.6342 51.8303L15.3822 51.8486L15.1299 51.8643L14.8773 51.8776L14.6245 51.8884L14.3716 51.8966L14.1183 51.9025L13.865 51.9058L13.6114 51.9067L13.3578 51.9051L13.1041 51.901L12.8503 51.8945L12.5964 51.8853L12.3426 51.8737L12.0887 51.8598L11.835 51.8431L11.5812 51.8241L11.3276 51.8025L11.074 51.7784L10.8206 51.7519L10.5674 51.7229L10.3144 51.6914L10.0615 51.6573L9.80894 51.6207L9.55656 51.5817L9.30458 51.5402L9.05286 51.4962L8.80142 51.4496L8.5505 51.4007L8.29985 51.3493L8.04973 51.2952L7.79988 51.2388L7.5507 51.18L7.30191 51.1186L7.05366 51.0547L6.80594 50.9884L6.55889 50.9197L6.31236 50.8485L6.06637 50.7749L5.82118 50.6988L5.57665 50.6202L5.33279 50.5393L5.0896 50.4558L4.8472 50.37L4.60561 50.2819L4.36481 50.1912L4.12481 50.0982L3.88574 50.0027L3.64747 49.9049L3.41013 49.8046L3.17372 49.7021L2.93825 49.5973L2.70371 49.49L2.47023 49.3803L2.23782 49.2683L2.00647 49.154L1.77605 49.0374L1.54683 48.9185L1.31881 48.7973L1.09173 48.6739L0.865969 48.5481L0.641409 48.42L0.418048 48.2897L0.195886 48.1571L-0.0249472 48.0224L-0.244581 47.8853L-0.462885 47.7462L-0.679724 47.6047L-0.895364 47.4612L-1.10954 47.3153L-1.32225 47.1674L-1.53363 47.0174L-1.74354 46.8651L-1.95196 46.7109L-2.1589 46.5543L-2.3643 46.3958L-2.56818 46.2353L-2.77049 46.0725L-2.97121 45.9078L-3.17033 45.741L-3.36783 45.5722L-3.56368 45.4014L-3.75785 45.2285L-3.95033 45.0538L-4.14109 44.8771L-4.33014 44.6984L-4.51741 44.5179L-4.70291 44.3352L-4.88663 44.1509L-5.06853 43.9646L-5.24859 43.7764L-5.4268 43.5865L-5.60313 43.3947L-5.77756 43.201L-5.95009 43.0056L-6.12069 42.8084L-6.28932 42.6094L-6.45599 42.4088L-6.62067 42.2064L-6.78334 42.0023L-6.94398 41.7965L-7.10258 41.5891L-7.25912 41.38L-7.41359 41.1693L-7.56594 40.957L-7.7162 40.7431L-7.86431 40.5277L-8.01028 40.3107L-8.15408 40.0922L-8.2957 39.8723L-8.43514 39.6508L-8.57235 39.4278L-8.70732 39.2035L-8.84006 38.9776L-8.97052 38.7505L-9.09872 38.522L-9.22463 38.2921L-9.34823 38.0607L-9.46952 37.8282L-9.58845 37.5945L-9.70506 37.3594L-9.81928 37.1231L-9.93114 36.8855L-10.0406 36.6468L-10.1477 36.4068L-10.2523 36.1659L-10.3545 35.9236L-10.4543 35.6804L-10.5516 35.436L-10.6465 35.1906L-10.7389 34.9442L-10.8287 34.6967L-10.9161 34.4484L-11.001 34.199L-11.0834 33.9487L-11.1632 33.6975L-11.2405 33.4454L-11.3152 33.1925L-11.3874 32.9386L-11.4569 32.684L-11.524 32.4287L-11.5884 32.1726L-11.6502 31.9156L-11.7094 31.6581L-11.766 31.3997L-11.8199 31.1408L-11.8713 30.8812L-11.9199 30.6211L-11.966 30.3604L-12.0094 30.0991L-12.0501 29.8372L-12.0882 29.5749L-12.1235 29.312L-12.1562 29.0487L-12.1862 28.785L-12.2136 28.5209L-12.2382 28.2565L-12.2601 27.9916L-12.2793 27.7265L-12.2959 27.4611L-12.3096 27.1954L-12.3207 26.9294L-12.3291 26.6633L-12.3347 26.397L-12.3376 26.1305L-12.3378 25.8639ZM13.4567 6.33864L13.396 1.21358L13.3384 1.21914L13.0738 1.24731L12.8098 1.27803L12.546 1.31136L12.2832 1.34717L12.0207 1.38559L11.7585 1.42657L11.4971 1.47007L11.2359 1.51617L10.9761 1.56466L10.7158 1.61587L10.4575 1.66938L10.1987 1.72559L9.94125 1.78419L9.68408 1.84539L9.42811 1.90894L9.1728 1.97504L8.91816 2.04361L8.66431 2.11465L8.41166 2.18808L8.15942 2.26403L7.9085 2.34234L7.65825 2.42314L7.40933 2.50617L7.16082 2.59183L6.91363 2.67978L6.66764 2.77005L6.42231 2.86279L6.17832 2.95779L5.93566 3.05508L5.69366 3.15488L5.45286 3.25693L5.21326 3.36132L4.97499 3.4679L4.73792 3.5768L4.50218 3.6879L4.26723 3.80144L4.03403 3.91706L3.80201 4.03493L3.57133 4.15503L3.34198 4.27734L3.11422 4.40175L2.8874 4.52846L2.66204 4.65736L2.43868 4.7881L2.21599 4.9214L1.99542 5.05647L1.77632 5.19364L1.55828 5.33306L1.34198 5.47452L1.12727 5.61804L0.914555 5.76325L0.702641 5.91103L0.492857 6.0604L0.284671 6.21183L0.0779486 6.36533L-0.12691 6.52066L-0.329906 6.67785L-0.531703 6.83725L-0.731236 6.99817L-0.929308 7.1612L-1.12551 7.32601L-1.31999 7.49273L-1.51247 7.66105L-1.70351 7.8315L-1.89237 8.00347L-2.07962 8.17742L-2.2647 8.35283L-2.44808 8.53015L-2.62944 8.70907L-2.80894 8.88975L-2.98669 9.0723L-3.16212 9.2561L-3.33558 9.44148L-3.50749 9.62904L-3.67702 9.81779L-3.84448 10.0079L-4.01021 10.2L-4.17354 10.3932L-4.33506 10.5882L-4.49441 10.7846L-4.65167 10.9825L-4.80687 11.1818L-4.95979 11.3824L-5.11071 11.5844L-5.25956 11.7881L-5.40601 11.9927L-5.5505 12.199L-5.69269 12.4064L-5.83269 12.6151L-5.97058 12.8252L-6.10614 13.0364L-6.23947 13.2487L-6.37058 13.4624L-6.49933 13.6771L-6.62598 13.8931L-6.75034 14.1104L-6.87226 14.3284L-6.99199 14.5476L-7.10944 14.7681L-7.2245 14.9894L-7.3373 15.2119L-7.44768 15.4351L-7.55575 15.6594L-7.66144 15.8846L-7.76483 16.1109L-7.86577 16.3379L-7.96441 16.5659L-8.06065 16.7947L-8.15443 17.0242L-8.24587 17.2546L-8.3349 17.4858L-8.42149 17.7177L-8.50569 17.9504L-8.58739 18.1836L-8.66674 18.4177L-8.74362 18.6524L-8.81805 18.8877L-8.89001 19.1235L-8.95957 19.3602L-9.02662 19.5971L-9.09122 19.8347L-9.15337 20.0727L-9.21304 20.3114L-9.27023 20.5503L-9.32493 20.7898L-9.37717 21.0296L-9.42691 21.2699L-9.47417 21.5104L-9.51894 21.7514L-9.56122 21.9926L-9.60101 22.2342L-9.63829 22.4759L-9.67309 22.7179L-9.70538 22.9602L-9.73518 23.2026L-9.76249 23.4451L-9.78728 23.6879L-9.80958 23.9307L-9.82939 24.1735L-9.84669 24.4165L-9.86149 24.6596L-9.87381 24.9025L-9.88362 25.1456L-9.89094 25.3885L-9.89576 25.6314L-9.8981 25.8742L-9.89794 26.117L-9.8953 26.3596L-9.89018 26.6021L-9.88258 26.8444L-9.8725 27.0864L-9.85994 27.3282L-9.84492 27.5697L-9.82743 27.811L-9.80748 28.0519L-9.78506 28.2926L-9.76021 28.533L-9.73289 28.7729L-9.70314 29.0125L-9.67096 29.2516L-9.63634 29.4902L-9.59928 29.7285L-9.55982 29.9661L-9.51793 30.2033L-9.47365 30.44L-9.42696 30.676L-9.37789 30.9116L-9.32643 31.1464L-9.27258 31.3807L-9.21637 31.6143L-9.1578 31.8472L-9.09686 32.0795L-9.03361 32.3109L-8.96798 32.5417L-8.90004 32.7717L-8.82979 33.0009L-8.75721 33.2293L-8.68236 33.4568L-8.60521 33.6835L-8.52577 33.9093L-8.44407 34.1342L-8.36013 34.3581L-8.27389 34.5812L-8.18546 34.8032L-8.0948 35.0243L-8.0019 35.2444L-7.90682 35.4633L-7.80953 35.6814L-7.71006 35.8983L-7.60843 36.1141L-7.50466 36.3288L-7.39873 36.5423L-7.29068 36.7548L-7.18051 36.966L-7.06824 37.1761L-6.95387 37.3849L-6.83744 37.5925L-6.71894 37.7988L-6.5984 38.0039L-6.4758 38.2076L-6.35125 38.41L-6.22461 38.6112L-6.09603 38.8108L-5.96545 39.0093L-5.83291 39.2063L-5.69846 39.4018L-5.56207 39.5961L-5.42373 39.7888L-5.28353 39.9801L-5.14141 40.1699L-4.99749 40.3581L-4.85164 40.5449L-4.70405 40.73L-4.55459 40.9137L-4.40329 41.096L-4.25031 41.2765L-4.0955 41.4554L-3.93897 41.6327L-3.78066 41.8084L-3.62069 41.9823L-3.45905 42.1547L-3.2957 42.3254L-3.13071 42.4944L-2.96402 42.6617L-2.79577 42.8272L-2.62587 42.9911L-2.45445 43.1531L-2.28144 43.3135L-2.10684 43.472L-1.93075 43.6287L-1.75324 43.7835L-1.5741 43.9366L-1.39347 44.0878L-1.21164 44.2371L-1.02808 44.3847L-0.843318 44.5302L-0.657094 44.674L-0.46954 44.8159L-0.280521 44.9558L-0.0903044 45.0937L0.101243 45.2297L0.293988 45.3638L0.488198 45.496L0.683473 45.626L0.880212 45.7542L1.07788 45.8804L1.27688 46.0044L1.47708 46.1266L1.67822 46.2467L1.88068 46.3648L2.08407 46.4807L2.28867 46.5947L2.49419 46.7065L2.70091 46.8163L2.90843 46.924L3.11702 47.0297L3.32667 47.1331L3.53725 47.2345L3.74863 47.3338L3.96095 47.431L4.17406 47.5259L4.38824 47.6188L4.60308 47.7095L4.81885 47.7981L5.03529 47.8845L5.25253 47.9686L5.47056 48.0508L5.68913 48.1306L5.9085 48.2082L6.12867 48.2837L6.34937 48.3571L6.57073 48.4281L6.7925 48.497L7.01519 48.5636L7.23815 48.6281L7.46178 48.6902L7.68594 48.7503L7.9105 48.808L8.13559 48.8635L8.36095 48.9168L8.58697 48.9679L8.81326 49.0166L9.03982 49.0632L9.26691 49.1075L9.49426 49.1496L9.72188 49.1894L9.94977 49.2269L10.1779 49.2622L10.4063 49.2952L10.635 49.326L10.8637 49.3546L11.0927 49.3808L11.3218 49.4048L11.551 49.4266L11.7803 49.446L12.0097 49.4633L12.239 49.4783L12.4685 49.491L12.6979 49.5014L12.9272 49.5097L13.1566 49.5157L13.3859 49.5193L13.615 49.5207L13.8441 49.5199L14.073 49.5169L14.3017 49.5117L14.5303 49.5041L14.7587 49.4944L14.9868 49.4824L15.2146 49.4681L15.4422 49.4518L15.6696 49.4331L15.8965 49.4122L16.1231 49.3891L16.3494 49.3638L16.5751 49.3364L16.8006 49.3067L17.0256 49.2747L17.2501 49.2407L17.4742 49.2044L17.6978 49.166L17.9209 49.1254L18.1433 49.0826L18.3652 49.0378L18.5866 48.9907L18.8073 48.9415L19.0273 48.8902L19.2468 48.8367L19.4655 48.7812L19.6836 48.7234L19.9008 48.6636L20.1175 48.6017L20.3333 48.5377L20.5484 48.4717L20.7626 48.4036L20.9761 48.3334L21.1886 48.2612L21.4002 48.1869L21.6111 48.1105L21.8211 48.0323L22.03 47.9519L22.2381 47.8696L22.4451 47.7853L22.6511 47.699L22.8563 47.6107L23.0603 47.5205L23.2632 47.4283L23.4653 47.3342L23.6661 47.2381L23.8658 47.1403L24.0645 47.0403L24.2619 46.9386L24.4583 46.8351L24.6535 46.7295L24.8474 46.6222L25.0401 46.5131L25.2315 46.4022L25.422 46.2893L25.6107 46.1748L25.7987 46.0584L25.9849 45.9403L26.1699 45.8204L26.3538 45.6987L26.5363 45.5752L26.717 45.4503L26.8966 45.3234L27.0748 45.195L27.2516 45.0649L27.4271 44.933L27.6008 44.7998L27.7734 44.6645L27.9442 44.528L28.1135 44.3898L28.2816 44.2499L28.448 44.1084L28.6127 43.9656L28.776 43.821L28.9376 43.6751L29.0977 43.5276L29.2563 43.3787L29.4129 43.2284L29.5683 43.0764L29.7219 42.923L29.8738 42.7684L30.0241 42.6122L30.1725 42.4549L30.3192 42.2962L30.4645 42.1357L30.6078 41.9744L30.7495 41.8114L30.8893 41.6474L31.0275 41.482L31.1638 41.3155L31.2982 41.1476L31.4311 40.9784L31.5619 40.8083L31.6911 40.6367L31.8183 40.4642L31.9438 40.2904L32.0676 40.1153L32.189 39.9396L32.3089 39.7624L32.4267 39.5845L32.5428 39.4052L32.6571 39.2248L32.7692 39.0438L32.8794 38.8617L32.9879 38.6781L33.0941 38.4943L33.1986 38.3091L33.3013 38.123L33.4016 37.9364L33.5003 37.7485L33.5969 37.5597L33.6913 37.3708L33.7839 37.1803L33.8746 36.9892L33.9631 36.7975L34.0496 36.605L34.1341 36.4118L34.2165 36.2179L34.2971 36.0231L34.3755 35.8277L34.4518 35.6321L34.526 35.4351L34.5982 35.2381L34.6685 35.0402L34.7366 34.8418L34.8026 34.6428L34.8664 34.4438L34.9284 34.2434L34.9881 34.0432L35.0457 33.8423L35.1013 33.6412L35.1548 33.4392L35.2061 33.2373L35.2555 33.0347L35.3026 32.8317L35.3477 32.6286L35.3907 32.4249L35.4315 32.2214L35.4702 32.0169L35.5068 31.813L35.5413 31.6083L35.5736 31.4034L35.6038 31.1986L35.6321 30.9933L35.658 30.7883L35.682 30.5824L35.7037 30.3773L35.7234 30.1715L35.7408 29.9661L35.7562 29.76L35.7696 29.5548L35.7807 29.3489L35.7898 29.1428L35.7967 28.9373L35.8016 28.7321L35.8043 28.5262L35.805 28.3207L35.8035 28.1154L35.7999 27.9103L35.7942 27.7052L35.7863 27.5009L35.7765 27.2957L35.7645 27.0915L35.7504 26.8874L35.7343 26.6838L35.716 26.4799L35.6958 26.2769L35.6735 26.0738L35.649 25.8713L35.6225 25.669L35.594 25.4673L35.5632 25.2655L35.5306 25.0647L35.496 24.8645L35.4593 24.6641L35.4204 24.4645L35.3797 24.2656L35.3368 24.0666L35.2922 23.8691L35.2452 23.6712L35.1966 23.4748L35.1457 23.278L35.093 23.0828L35.0382 22.8878L34.9815 22.6931L34.923 22.4997L34.8624 22.307L34.7997 22.1144L34.7354 21.9232L34.6689 21.7322L34.6007 21.5424L34.5304 21.353L34.4584 21.1649L34.3843 20.9771L34.3084 20.7903L34.2308 20.6048L34.1513 20.42L34.0696 20.2355L33.9867 20.0527L33.9013 19.8701L33.8145 19.6892L33.7259 19.509L33.6352 19.3294L33.5431 19.1513L33.449 18.974L33.353 18.7975L33.2559 18.6227L33.1564 18.4483L33.0555 18.2754L32.9526 18.1033L32.8486 17.9329L32.7422 17.763L32.6346 17.5946L32.5251 17.427L32.4141 17.2609L32.3016 17.0962L32.1871 16.9322L32.0712 16.7697L31.9538 16.6083L31.8346 16.4485L31.714 16.2895L31.5919 16.1322L31.4682 15.9759L31.3429 15.8211L31.2162 15.6676L31.0879 15.5154L30.9581 15.3646L30.827 15.2151L30.6945 15.067L30.5605 14.9204L30.4247 14.7749L30.2883 14.6314L30.1496 14.4887L30.0102 14.348L29.8693 14.2083L29.7271 14.0704L29.5831 13.9336L29.4385 13.7989L29.2921 13.6652L29.1445 13.5332L28.996 13.4029L28.8462 13.274L28.6945 13.1464L28.5421 13.0206L28.3887 12.8964L28.2338 12.7738L28.0778 12.6527L27.921 12.5335L27.7625 12.4153L27.6034 12.2994L27.443 12.1849L27.2814 12.0719L27.1192 11.9608L26.9552 11.8509L26.7912 11.7434L26.6253 11.637L26.4589 11.5325L26.2912 11.4296L26.1228 11.3285L25.9535 11.2292L25.7835 11.1317L25.6119 11.0355L25.4404 10.9415L25.2673 10.849L25.0936 10.7584L24.9192 10.6696L24.7438 10.5824L24.5677 10.4969L24.3909 10.4135L24.2132 10.3316L24.0351 10.2517L23.8561 10.1735L23.6706 10.0947L23.4963 10.0227L23.3148 9.94971L23.1337 9.87902L22.951 9.80967L22.7684 9.74258L22.585 9.67709L22.4012 9.6136L22.2165 9.5517L22.0318 9.49193L21.8462 9.4339L21.6603 9.37773L21.4742 9.32355L21.2873 9.27105L21.0997 9.22036L20.9124 9.17174L20.7248 9.12496L20.5359 9.0799L20.3476 9.03692L20.1585 8.99566L19.9693 8.95639L19.7795 8.9189L19.59 8.88339L19.3999 8.84971L19.2099 8.81799L19.0191 8.78804L18.8287 8.76007L18.638 8.73396L18.4469 8.70972L18.2559 8.68738L18.0649 8.66696L17.8738 8.64841L17.6825 8.63174L17.4911 8.61695L17.2995 8.60404L17.1085 8.59305L16.9174 8.58393L16.7255 8.57667L16.5348 8.57132L16.3437 8.56783L16.1526 8.56624L15.9614 8.5665L15.923 8.56694L15.9833 13.6547L16.0918 13.6542L16.2314 13.655L16.3711 13.6571L16.5108 13.6607L16.6507 13.6656L16.7906 13.672L16.9305 13.6798L17.0706 13.6888L17.2106 13.6993L17.3506 13.7112L17.4907 13.7245L17.6306 13.7391L17.7706 13.7552L17.9105 13.7727L18.0503 13.7914L18.19 13.8118L18.3297 13.8334L18.4692 13.8564L18.6087 13.8809L18.7479 13.9067L18.887 13.934L19.026 13.9626L19.1648 13.9926L19.3034 14.024L19.4417 14.0569L19.5799 14.0911L19.7176 14.1266L19.8553 14.1636L19.9926 14.202L20.1297 14.2418L20.2666 14.2829L20.403 14.3253L20.5391 14.3693L20.6748 14.4145L20.8103 14.4613L20.9453 14.5093L21.08 14.5587L21.2142 14.6094L21.3481 14.6616L21.4815 14.7151L21.6145 14.7699L21.7469 14.8262L21.879 14.8838L22.0105 14.9427L22.1415 15.0029L22.2719 15.0645L22.402 15.1275L22.5313 15.1918L22.6602 15.2574L22.7885 15.3244L22.9162 15.3925L23.0433 15.4621L23.1697 15.5329L23.2955 15.6051L23.4208 15.6786L23.5454 15.7534L23.6692 15.8294L23.7923 15.9067L23.9148 15.9854L24.0366 16.0653L24.1576 16.1463L24.2779 16.2287L24.3974 16.3124L24.5162 16.3972L24.6341 16.4834L24.7512 16.5708L24.8677 16.6593L24.9831 16.7492L25.0979 16.8402L25.2117 16.9323L25.3247 17.0258L25.4368 17.1204L25.548 17.2161L25.6584 17.313L25.7678 17.4111L25.8763 17.5104L25.9837 17.6108L26.0903 17.7124L26.1959 17.815L26.3005 17.9188L26.4042 18.0237L26.5069 18.1298L26.6086 18.2368L26.709 18.3451L26.8086 18.4543L26.9071 18.5647L27.0046 18.676L27.1009 18.7884L27.1962 18.9019L27.2905 19.0163L27.3835 19.1319L27.4755 19.2484L27.5663 19.3659L27.656 19.4844L27.7445 19.6039L27.8318 19.7242L27.9181 19.8456L28.003 19.968L28.0869 20.0912L28.1694 20.2154L28.2507 20.3404L28.3309 20.4665L28.4098 20.5933L28.4876 20.721L28.564 20.8495L28.639 20.9791L28.7129 21.1092L28.7855 21.2404L28.8567 21.3723L28.9267 21.505L28.9954 21.6385L29.0626 21.7728L29.1286 21.9079L29.1933 22.0437L29.2565 22.1801L29.3184 22.3175L29.379 22.4554L29.4382 22.5941L29.496 22.7335L29.5524 22.8735L29.6074 23.0142L29.6609 23.1554L29.7131 23.2975L29.7638 23.44L29.8132 23.5833L29.8611 23.727L29.9075 23.8714L29.9524 24.0163L29.996 24.1618L30.038 24.3078L30.0786 24.4543L30.1176 24.6014L30.1553 24.7489L30.1914 24.8969L30.226 25.0454L30.2591 25.1943L30.2907 25.3437L30.3208 25.4934L30.3493 25.6436L30.3763 25.7942L30.4018 25.9452L30.4258 26.0964L30.4482 26.2482L30.4691 26.4L30.4884 26.5523L30.5062 26.705L30.5223 26.8579L30.5369 27.011L30.5501 27.1645L30.5616 27.3181L30.5715 27.472L30.5798 27.626L30.5866 27.7803L30.5918 27.9348L30.5954 28.0894L30.5974 28.2442L30.5978 28.3991L30.5966 28.554L30.5938 28.7091L30.5894 28.8643L30.5834 29.0197L30.5758 29.1749L30.5666 29.3302L30.5558 29.4857L30.5435 29.641L30.5294 29.7964L30.5138 29.9517L30.4965 30.1069L30.4777 30.2623L30.4572 30.4173L30.4351 30.5724L30.4114 30.7274L30.3861 30.8822L30.3592 31.0368L30.3306 31.1914L30.3005 31.3458L30.2687 31.4999L30.2353 31.6539L30.2004 31.8077L30.1638 31.9612L30.1256 32.1144L30.0858 32.2675L30.0444 32.4201L30.0014 32.5726L29.9568 32.7246L29.9107 32.8763L29.8629 33.0278L29.8133 33.1789L29.7624 33.3294L29.7098 33.4797L29.6557 33.6296L29.6 33.7789L29.5426 33.9279L29.4838 34.0764L29.4233 34.2245L29.3613 34.3721L29.2977 34.519L29.2326 34.6656L29.1659 34.8116L29.0976 34.957L29.0279 35.1018L28.9565 35.2461L28.8836 35.3897L28.8092 35.5328L28.7333 35.6751L28.6558 35.8169L28.5769 35.958L28.4965 36.0984L28.4145 36.238L28.331 36.3771L28.2461 36.5153L28.1597 36.653L28.0717 36.7897L27.9824 36.9257L27.8915 37.0608L27.7992 37.1953L27.7055 37.3289L27.6104 37.4616L27.5137 37.5935L27.4157 37.7246L27.3163 37.8548L27.2154 37.9841L27.1132 38.1124L27.0095 38.2399L26.9045 38.3664L26.7981 38.492L26.6903 38.6166L26.5811 38.7403L26.4706 38.8629L26.3588 38.9845L26.2457 39.1051L26.1313 39.2248L26.0155 39.3433L25.8985 39.4608L25.7801 39.5771L25.6605 39.6926L25.5395 39.8068L25.4175 39.9198L25.2941 40.0319L25.1693 40.1426L25.0436 40.2523L24.9164 40.3609L24.7882 40.4682L24.6587 40.5744L24.5281 40.6793L24.3962 40.783L24.2633 40.8855L24.1292 40.9868L23.994 41.0868L23.8575 41.1855L23.7202 41.2831L23.5816 41.3792L23.442 41.4741L23.3011 41.5677L23.1594 41.6599L23.0165 41.7509L22.8728 41.8404L22.7278 41.9286L22.5821 42.0155L22.4351 42.1009L22.2873 42.1849L22.1385 42.2676L21.9888 42.3489L21.8381 42.4288L21.6865 42.5072L21.5339 42.5841L21.3806 42.6596L21.2263 42.7338L21.0711 42.8063L20.9151 42.8774L20.7583 42.947L20.6007 43.0152L20.4422 43.0817L20.283 43.1468L20.123 43.2104L19.9622 43.2725L19.8007 43.333L19.6384 43.392L19.4755 43.4494L19.3118 43.5051L19.1475 43.5594L18.9825 43.612L18.8169 43.6631L18.6506 43.7127L18.4837 43.7604L18.3162 43.8068L18.1481 43.8514L17.9795 43.8944L17.8103 43.9358L17.6406 43.9756L17.4702 44.0136L17.2995 44.0501L17.1282 44.0848L16.9565 44.118L16.7844 44.1495L16.6117 44.1794L16.4387 44.2074L16.2654 44.2338L16.0915 44.2585L15.9173 44.2816L15.7428 44.303L15.568 44.3226L15.3928 44.3405L15.2174 44.3568L15.0417 44.3713L14.8657 44.3841L14.6895 44.3951L14.513 44.4044L14.3363 44.412L14.1594 44.4179L13.9824 44.422L13.8052 44.4244L13.6278 44.4251L13.4503 44.424L13.2729 44.4211L13.0952 44.4166L12.9175 44.4102L12.7398 44.402L12.562 44.3922L12.3842 44.3806L12.2064 44.3673L12.0287 44.3521L11.851 44.3352L11.6733 44.3166L11.4957 44.2962L11.3183 44.2741L11.1409 44.2502L10.9637 44.2245L10.7866 44.1971L10.6097 44.1679L10.433 44.1369L10.2565 44.1043L10.0802 44.0698L9.90424 44.0335L9.7284 43.9955L9.55297 43.9559L9.37779 43.9143L9.20288 43.8711L9.02837 43.8261L8.85413 43.7793L8.68028 43.7309L8.50697 43.6807L8.33393 43.6288L8.16128 43.5752L7.98917 43.5196L7.81759 43.4625L7.64627 43.4037L7.47562 43.3431L7.30551 43.2808L7.13579 43.2168L6.96674 43.1511L6.79822 43.0837L6.63023 43.0145L6.46291 42.9437L6.29626 42.8713L6.13027 42.797L5.96481 42.7211L5.80015 42.6436L5.63616 42.5644L5.47283 42.4835L5.31017 42.401L5.14844 42.3169L4.98737 42.231L4.8271 42.1435L4.66763 42.0545L4.50897 41.9637L4.3511 41.8715L4.19416 41.7775L4.03802 41.6819L3.88281 41.5849L3.72853 41.4861L3.57519 41.3859L3.42278 41.2839L3.2713 41.1805L3.12075 41.0756L2.97126 40.9691L2.82271 40.861L2.67522 40.7515L2.52867 40.6403L2.38331 40.5277L2.23901 40.4136L2.09579 40.298L1.95362 40.1809L1.81252 40.0623L1.67262 39.9424L1.53392 39.8209L1.39629 39.698L1.25985 39.5737L1.12474 39.448L0.990694 39.3209L0.857849 39.1923L0.726335 39.0624L0.596152 38.9312L0.467167 38.7984L0.339379 38.6645L0.212924 38.5292L0.0879316 38.3926L-0.035862 38.2546L-0.158324 38.1153L-0.279324 37.9748L-0.399124 37.833L-0.517326 37.6899L-0.634332 37.5455L-0.74974 37.4L-0.863816 37.2532L-0.976428 37.1051L-1.08758 36.9559L-1.19739 36.8056L-1.30561 36.654L-1.41224 36.5013L-1.51753 36.3475L-1.62122 36.1925L-1.72337 36.0365L-1.82399 35.8793L-1.92306 35.721L-2.02056 35.5617L-2.11648 35.4013L-2.2108 35.24L-2.30352 35.0774L-2.39464 34.9141L-2.48412 34.7496L-2.57196 34.5843L-2.65816 34.4179L-2.7427 34.2506L-2.82556 34.0823L-2.90675 33.9131L-2.98624 33.7431L-3.06403 33.5721L-3.14012 33.4004L-3.21447 33.2277L-3.2871 33.0541L-3.358 32.8799L-3.42712 32.7049L-3.4945 32.5289L-3.56011 32.3523L-3.62395 32.1749L-3.68599 31.9967L-3.74624 31.8179L-3.80469 31.6384L-3.86133 31.4581L-3.91614 31.2774L-3.96914 31.0958L-4.02029 30.9137L-4.06961 30.731L-4.11706 30.5475L-4.16267 30.3637L-4.20642 30.1792L-4.24828 29.9942L-4.28829 29.8086L-4.32639 29.6227L-4.36261 29.4362L-4.39694 29.2492L-4.42937 29.0617L-4.45988 28.8739L-4.48848 28.6857L-4.51517 28.4971L-4.53993 28.3081L-4.56276 28.1186L-4.58366 27.929L-4.60263 27.739L-4.61965 27.5487L-4.63472 27.358L-4.64785 27.1673L-4.65903 26.9761L-4.66824 26.7849L-4.67549 26.5934L-4.68078 26.4018L-4.6841 26.2099L-4.68546 26.0179L-4.68484 25.8258L-4.68225 25.6336L-4.67768 25.4414L-4.67114 25.249L-4.66261 25.0565L-4.65209 24.8642L-4.63961 24.6717L-4.62512 24.4794L-4.60867 24.2869L-4.59022 24.0947L-4.56978 23.9023L-4.54736 23.7102L-4.52295 23.5182L-4.49655 23.3262L-4.46817 23.1344L-4.4378 22.9429L-4.40545 22.7514L-4.37111 22.5603L-4.33478 22.3693L-4.29647 22.1785L-4.25619 21.9882L-4.21392 21.798L-4.16967 21.6081L-4.12345 21.4186L-4.07527 21.2294L-4.0251 21.0407L-3.97297 20.8522L-3.91887 20.6643L-3.86281 20.4767L-3.8048 20.2895L-3.74482 20.1028L-3.68289 19.9167L-3.61903 19.731L-3.5532 19.5459L-3.48545 19.3612L-3.41576 19.1771L-3.34415 18.9937L-3.27061 18.8108L-3.19515 18.6286L-3.11777 18.447L-3.03849 18.266L-2.95729 18.0858L-2.87421 17.9062L-2.78924 17.7273L-2.70238 17.5492L-2.61363 17.3719L-2.52303 17.1952L-2.43055 17.0195L-2.33623 16.8445L-2.24004 16.6704L-2.14202 16.4971L-2.04217 16.3246L-1.94049 16.1531L-1.83698 15.9825L-1.73168 15.8127L-1.62455 15.644L-1.51566 15.4761L-1.40491 15.3093L-1.29257 15.1435L-1.17823 14.9787L-1.06229 14.8148L-0.944614 14.652L-0.825081 14.4904L-0.70395 14.3297L-0.580954 14.1703L-0.456361 14.0119L-0.330039 13.8547L-0.202118 13.6987L-0.0724678 13.5437L0.0589132 13.39L0.191892 13.2374L0.326468 13.0862L0.462773 12.9362L0.600545 12.7874L0.740046 12.6399L0.881144 12.4936L1.02371 12.3488L1.16787 12.2051L1.31362 12.0629L1.46098 11.922L1.6098 11.7824L1.76008 11.6443L1.91196 11.5075L2.0653 11.3723L2.21998 11.2384L2.37625 11.1059L2.53399 10.9749L2.69306 10.8454L2.85359 10.7174L3.01559 10.5909L3.17892 10.4659L3.34357 10.3425L3.5097 10.2206L3.67702 10.1003L3.84567 9.98152L4.01579 9.86438L4.1871 9.74884L4.35962 9.63503L4.53359 9.52268L4.70863 9.41207L4.88501 9.3031L5.06258 9.1958L5.24135 9.09019L5.42118 8.98628L5.60234 8.88408L5.78457 8.78359L5.96787 8.68486L6.15236 8.58788L6.33792 8.49265L6.52454 8.39919L6.71223 8.30752L6.90098 8.21764L7.0908 8.12958L7.28155 8.04332L7.47336 7.95889L7.66611 7.87631L7.85979 7.79557L8.05439 7.71669L8.2498 7.63969L8.44627 7.56456L8.64355 7.49132L8.84175 7.41999L9.04075 7.35056L9.24055 7.28304L9.44115 7.21746L9.64241 7.15382L9.84461 7.09211L10.0475 7.03235L10.2511 6.97457L10.4553 6.91874L10.6603 6.8649L10.866 6.81304L11.0723 6.76317L11.2792 6.71532L11.4867 6.66945L11.6947 6.6256L11.9033 6.58378L12.1126 6.54399L12.3222 6.50623L12.5324 6.4705L12.7431 6.43682L12.9542 6.4052L13.1657 6.37563L13.3777 6.34812L13.4567 6.33864ZM13.5462 13.8849L13.4852 8.74117L13.3115 8.76545L13.1247 8.79345L12.9379 8.8233L12.7522 8.85486L12.5662 8.88835L12.3812 8.92356L12.1966 8.96058L12.0126 8.99933L11.829 9.03991L11.6459 9.0823L11.4632 9.12642L11.2814 9.17229L11.0997 9.22L10.9252 9.26764L10.7393 9.32049L10.5597 9.37333L10.3809 9.42791L10.2031 9.48408L10.0256 9.54212L9.84887 9.60188L9.6729 9.66325L9.49785 9.72621L9.32348 9.79104L9.1499 9.85733L8.97699 9.92548L8.80541 9.9951L8.63383 10.0666L8.46358 10.1395L8.29413 10.2141L8.12588 10.2902L7.95802 10.3681L7.7911 10.4475L7.62564 10.5283L7.46045 10.611L7.29699 10.695L7.13379 10.7809L6.9722 10.8678L6.81087 10.9568L6.65113 11.0468L6.49246 11.1385L6.33459 11.2318L6.17792 11.3265L6.02205 11.4229L5.86777 11.5203L5.71416 11.6195L5.56201 11.72L5.41093 11.8218L5.26091 11.9252L5.11183 12.0301L4.96447 12.1359L4.81792 12.2436L4.67256 12.3525L4.52853 12.4627L4.38584 12.5741L4.24407 12.6871L4.10391 12.8012L3.96494 12.9166L3.82704 13.0336L3.69086 13.1514L3.55562 13.2708L3.42171 13.3914L3.28927 13.5131L3.15828 13.636L3.02823 13.7603L2.90005 13.8854L2.77306 14.0119L2.64727 14.1397L2.52308 14.2684L2.40021 14.3984L2.27881 14.5294L2.15888 14.6615L2.04028 14.7947L1.92301 14.9291L1.80773 15.0643L1.69352 15.2007L1.58078 15.3382L1.46963 15.4765L1.36008 15.6157L1.25173 15.7563L1.1451 15.8975L1.03995 16.0398L0.936385 16.1831L0.834289 16.3272L0.733922 16.472L0.63502 16.6179L0.537582 16.7648L0.441743 16.9124L0.347631 17.0607L0.255119 17.2099L0.164072 17.3602L0.0746202 17.5108L-0.0131006 17.6625L-0.0993557 17.8149L-0.183749 17.9677L-0.266677 18.1216L-0.348142 18.2762L-0.427609 18.4312L-0.505613 18.5872L-0.581885 18.7437L-0.656561 18.9007L-0.729506 19.0585L-0.800855 19.2168L-0.870471 19.3757L-0.938492 19.5352L-1.00465 19.6952L-1.06921 19.8557L-1.13217 20.0169L-1.1934 20.1785L-1.25277 20.3405L-1.31067 20.5032L-1.36658 20.666L-1.42102 20.8294L-1.4736 20.9933L-1.52458 21.1576L-1.5737 21.3221L-1.62122 21.487L-1.66688 21.6522L-1.71093 21.8179L-1.7532 21.9838L-1.79373 22.15L-1.83252 22.3166L-1.86959 22.4832L-1.90494 22.6503L-1.93849 22.8175L-1.97035 22.9848L-2.00046 23.1525L-2.0288 23.3202L-2.05543 23.4882L-2.08028 23.6561L-2.10343 23.8243L-2.12481 23.9926L-2.14446 24.161L-2.16236 24.3293L-2.17852 24.4979L-2.19294 24.6664L-2.20561 24.8348L-2.21655 25.0034L-2.22576 25.1719L-2.23323 25.3403L-2.23895 25.5087L-2.24296 25.677L-2.24522 25.8452L-2.24577 26.0135L-2.24458 26.1815L-2.24167 26.3493L-2.23703 26.517L-2.2307 26.6845L-2.22263 26.8519L-2.21286 27.0191L-2.20139 27.1859L-2.1882 27.3527L-2.17332 27.5191L-2.15673 27.6852L-2.13845 27.8511L-2.1185 28.0167L-2.09684 28.182L-2.07352 28.3468L-2.04851 28.5114L-2.02185 28.6754L-1.99351 28.8393L-1.9635 29.0028L-1.93186 29.1656L-1.89856 29.3282L-1.86363 29.4902L-1.82704 29.6519L-1.78886 29.8129L-1.74901 29.9735L-1.70756 30.1337L-1.66448 30.2933L-1.61989 30.4522L-1.57357 30.6108L-1.52578 30.7686L-1.47626 30.926L-1.42528 31.0828L-1.3727 31.2388L-1.31853 31.3941L-1.26289 31.5489L-1.20565 31.7031L-1.14681 31.8565L-1.08651 32.0092L-1.02475 32.1612L-0.961387 32.3126L-0.896563 32.4631L-0.830139 32.6129L-0.762385 32.762L-0.693033 32.9101L-0.622219 33.0576L-0.550072 33.2043L-0.476328 33.3501L-0.401253 33.4951L-0.324714 33.6393L-0.246711 33.7825L-0.167377 33.925L-0.0865774 34.0665L-0.00444794 34.207L0.0791464 34.3467L0.164072 34.4855L0.250328 34.6233L0.337915 34.7601L0.426968 34.8961L0.517083 35.0309L0.608797 35.1649L0.701576 35.2977L0.795819 35.4297L0.89126 35.5605L0.988031 35.6903L1.086 35.819L1.1853 35.9468L1.28567 36.0734L1.38737 36.1989L1.49026 36.3234L1.59436 36.4468L1.69965 36.5688L1.80614 36.6901L1.91369 36.8099L2.02244 36.9288L2.13226 37.0463L2.24327 37.1628L2.35536 37.278L2.46863 37.3921L2.58284 37.505L2.69825 37.6167L2.81472 37.7272L2.93199 37.8363L3.0506 37.9444L3.17 38.051L3.29046 38.1564L3.41199 38.2607L3.53446 38.3636L3.65785 38.4653L3.78218 38.5655L3.90743 38.6645L4.03362 38.7622L4.16075 38.8587L4.2888 38.9538L4.41752 39.0475L4.54717 39.1399L4.67775 39.2309L4.80913 39.3206L4.94145 39.409L5.07442 39.4959L5.2082 39.5815L5.34278 39.6658L5.47802 39.7486L5.61406 39.8301L5.7509 39.9101L5.88827 39.9886L6.02657 40.0658L6.16527 40.1415L6.30491 40.216L6.44507 40.2889L6.58577 40.3602L6.72727 40.4304L6.86943 40.4989L7.012 40.5662L7.15509 40.6318L7.29898 40.6961L7.44314 40.7588L7.58797 40.82L7.73333 40.8799L7.87922 40.9382L8.02538 40.9951L8.1722 41.0504L8.31942 41.1043L8.46704 41.1568L8.61506 41.2076L8.76361 41.2572L8.91243 41.3049L9.06165 41.3514L9.21127 41.3963L9.36115 41.4396L9.5113 41.4816L9.66185 41.5219L9.81266 41.5609L9.96375 41.5982L10.1151 41.634L10.2667 41.6683L10.4186 41.7012L10.5706 41.7325L10.7227 41.7622L10.8753 41.7904L11.0277 41.8172L11.1805 41.8424L11.3333 41.866L11.4863 41.8882L11.6394 41.9089L11.7924 41.928L11.9456 41.9456L12.0989 41.9617L12.2522 41.9762L12.4055 41.9893L12.5589 42.0007L12.7122 42.0108L12.8654 42.0192L13.0187 42.0263L13.172 42.0317L13.3251 42.0357L13.478 42.0381L13.631 42.039L13.7838 42.0385L13.9365 42.0364L14.089 42.0329L14.2413 42.0279L14.3936 42.0213L14.5454 42.0132L14.6972 42.0038L14.8487 41.9927L15 41.9802L15.151 41.9662L15.3018 41.9508L15.4523 41.9339L15.6025 41.9155L15.7524 41.8957L15.9019 41.8745L16.0511 41.8518L16.1999 41.8275L16.3482 41.802L16.4963 41.7748L16.6439 41.7463L16.7912 41.7165L16.9381 41.6851L17.0843 41.6524L17.2302 41.6183L17.3755 41.5826L17.5205 41.5457L17.6649 41.5074L17.8088 41.4676L17.9522 41.4265L18.095 41.384L18.2372 41.3402L18.3788 41.295L18.52 41.2484L18.6605 41.2004L18.8004 41.1512L18.9396 41.1006L19.0782 41.0487L19.2161 40.9955L19.3533 40.9409L19.49 40.885L19.6259 40.8279L19.761 40.7694L19.8956 40.7098L20.0292 40.6488L20.1624 40.5865L20.2947 40.523L20.4259 40.4585L20.5569 40.3923L20.6867 40.3252L20.8159 40.2567L20.944 40.1872L21.0715 40.1164L21.1982 40.0444L21.3239 39.9712L21.4489 39.8968L21.5729 39.8213L21.6959 39.7446L21.8184 39.6667L21.9395 39.5879L22.06 39.5078L22.1797 39.4265L22.2981 39.3442L22.4155 39.261L22.5324 39.1763L22.6479 39.091L22.7627 39.0044L22.8765 38.9166L22.9888 38.8281L23.1008 38.7383L23.2115 38.6475L23.3208 38.5559L23.4297 38.4629L23.5371 38.3693L23.6435 38.2748L23.7492 38.1788L23.8533 38.0824L23.9566 37.9849L24.0588 37.8864L24.1597 37.7871L24.2597 37.6867L24.3586 37.5855L24.4563 37.4834L24.5526 37.3805L24.6481 37.2767L24.7425 37.1721L24.8354 37.0668L24.9275 36.9603L25.0181 36.8533L25.1076 36.7455L25.1961 36.6366L25.2832 36.5274L25.3691 36.4171L25.4539 36.3062L25.5375 36.1944L25.6198 36.082L25.7007 35.9692L25.7807 35.8551L25.8593 35.7407L25.9366 35.6256L26.0129 35.5097L26.0874 35.3935L26.1612 35.2763L26.2334 35.1585L26.3045 35.0403L26.3741 34.9214L26.4428 34.8018L26.5098 34.6821L26.5758 34.5612L26.6404 34.4402L26.7035 34.3187L26.7656 34.1962L26.8261 34.0741L26.8856 33.9505L26.9433 33.8274L27.0003 33.7029L27.0554 33.5787L27.1096 33.4535L27.1623 33.3284L27.2135 33.2027L27.2636 33.0765L27.3123 32.9499L27.3594 32.8233L27.4056 32.6959L27.4501 32.5684L27.4933 32.4406L27.5353 32.3125L27.5759 32.1839L27.6151 32.0551L27.6529 31.9263L27.6894 31.7969L27.7244 31.6675L27.7582 31.5377L27.7906 31.4078L27.8216 31.2779L27.8513 31.1473L27.8795 31.0169L27.9065 30.8863L27.9319 30.7557L27.9562 30.6249L27.9789 30.4935L28.0004 30.3626L28.0205 30.2314L28.0391 30.1L28.0564 29.9689L28.0724 29.8375L28.087 29.7057L28.1002 29.5749L28.1122 29.443L28.1227 29.3116L28.1317 29.1805L28.1396 29.049L28.146 28.9177L28.151 28.7866L28.1548 28.6551L28.157 28.5244L28.1581 28.3931L28.1577 28.2623L28.1561 28.1314L28.153 28.0011L28.1487 27.8705L28.1429 27.7402L28.1359 27.6104L28.1275 27.4802L28.1178 27.3505L28.1069 27.2213L28.0945 27.0918L28.0808 26.9631L28.0657 26.8341L28.0495 26.7058L28.0319 26.5776L28.013 26.4496L27.9928 26.322L27.9713 26.1949L27.9486 26.0681L27.9245 25.9416L27.8991 25.815L27.8724 25.6894L27.8446 25.5641L27.8155 25.439L27.785 25.3141L27.7534 25.1903L27.7204 25.0661L27.6864 24.943L27.6509 24.82L27.6143 24.6978L27.5765 24.5757L27.5374 24.4542L27.4972 24.3335L27.4558 24.2131L27.4129 24.0929L27.3693 23.9738L27.3242 23.8549L27.278 23.7369L27.2306 23.6191L27.182 23.5018L27.1323 23.3856L27.0814 23.2695L27.0294 23.1544L26.9763 23.0399L26.922 22.9257L26.8665 22.8121L26.8102 22.6997L26.7524 22.5875L26.6939 22.4763L26.6341 22.3658L26.5731 22.2555L26.5114 22.1465L26.4483 22.0378L26.3843 21.9301L26.319 21.8229L26.2531 21.7168L26.1858 21.6109L26.1178 21.5063L26.0485 21.4024L25.9784 21.2992L25.9071 21.1966L25.8349 21.095L25.762 20.9944L25.6877 20.8941L25.6127 20.7951L25.5366 20.6967L25.4599 20.5994L25.3819 20.5027L25.3031 20.407L25.2234 20.312L25.1429 20.2179L25.0615 20.125L24.979 20.0326L24.8959 19.9415L24.8118 19.8509L24.7271 19.7618L24.6412 19.673L24.5548 19.5855L24.4672 19.4986L24.3791 19.413L24.2903 19.3283L24.2006 19.2445L24.1099 19.1616L24.0186 19.0798L23.9266 18.999L23.8336 18.9189L23.7405 18.8404L23.6462 18.7622L23.5512 18.6854L23.4557 18.6097L23.3593 18.5346L23.2624 18.4609L23.1651 18.3883L23.0666 18.3164L22.9674 18.2455L22.8682 18.1761L22.7677 18.1073L22.6674 18.0401L22.5661 17.9735L22.4641 17.908L22.3615 17.8436L22.2587 17.7805L22.1549 17.7182L22.0509 17.6573L21.946 17.5971L21.8413 17.5384L21.7356 17.4806L21.6294 17.4238L21.5228 17.3681L21.4159 17.3138L21.3083 17.2603L21.2002 17.208L21.092 17.1569L20.9835 17.107L20.8738 17.0579L20.7647 17.0102L20.6547 16.9636L20.5443 16.918L20.4336 16.8736L20.3229 16.8305L20.2116 16.7884L20.0997 16.7473L19.988 16.7076L19.8756 16.6689L19.763 16.6314L19.6505 16.595L19.5375 16.5599L19.4245 16.5258L19.3106 16.4928L19.197 16.4611L19.0832 16.4305L18.9691 16.4011L18.8549 16.3727L18.7402 16.3456L18.6257 16.3196L18.5112 16.2949L18.3962 16.2712L18.281 16.2485L18.1663 16.2274L18.0509 16.2071L17.9358 16.1881L17.8201 16.1701L17.7051 16.1535L17.5892 16.1378L17.474 16.1236L17.3585 16.1102L17.243 16.0981L17.1275 16.0872L17.0119 16.0774L16.8967 16.0687L16.7809 16.0613L16.6656 16.0549L16.5506 16.0497L16.4348 16.0456L16.32 16.0426L16.2049 16.0409L16.0901 16.0402L16.0115 16.0405L16.071 21.066L16.1066 21.0661L16.1726 21.0671L16.2388 21.0686L16.305 21.0708L16.3713 21.0738L16.4378 21.0774L16.5042 21.0817L16.5707 21.0868L16.6373 21.0925L16.704 21.0989L16.7707 21.1059L16.8374 21.1136L16.9042 21.1222L16.9709 21.1313L17.0377 21.1412L17.1045 21.1518L17.1713 21.1632L17.238 21.1751L17.3048 21.1879L17.3715 21.2012L17.4382 21.2155L17.5049 21.2302L17.5716 21.2458L17.638 21.2621L17.7046 21.279L17.771 21.2967L17.8373 21.315L17.9036 21.3341L17.9697 21.3539L18.0358 21.3744L18.1017 21.3957L18.1675 21.4177L18.2332 21.4403L18.2988 21.4636L18.3642 21.4877L18.4294 21.5124L18.4945 21.5379L18.5594 21.5641L18.6241 21.591L18.6887 21.6185L18.7531 21.6469L18.8173 21.6759L18.8813 21.7056L18.9451 21.7361L19.0085 21.7671L19.0719 21.7989L19.1349 21.8315L19.1977 21.8647L19.2603 21.8986L19.3226 21.9332L19.3846 21.9685L19.4464 22.0044L19.5077 22.041L19.5689 22.0784L19.6298 22.1165L19.6903 22.1552L19.7505 22.1945L19.8104 22.2346L19.87 22.2754L19.9293 22.3168L19.9881 22.3589L20.0467 22.4016L20.1049 22.445L20.1626 22.4891L20.22 22.5338L20.2771 22.5792L20.3337 22.6253L20.3898 22.6718L20.4458 22.7192L20.5011 22.7672L20.5561 22.8157L20.6107 22.865L20.6647 22.9149L20.7184 22.9654L20.7715 23.0165L20.8243 23.0683L20.8765 23.1206L20.9283 23.1735L20.9797 23.2271L21.0304 23.2812L21.0807 23.3361L21.1305 23.3914L21.1799 23.4474L21.2286 23.5039L21.2768 23.561L21.3246 23.6187L21.3717 23.677L21.4183 23.7358L21.4643 23.7952L21.5098 23.8552L21.5548 23.9156L21.5992 23.9767L21.6428 24.0382L21.6861 24.1004L21.7287 24.1631L21.7706 24.2263L21.812 24.2899L21.8529 24.3542L21.8929 24.4189L21.9325 24.4842L21.9713 24.5499L22.0095 24.6161L22.0472 24.6828L22.0841 24.75L22.1204 24.8176L22.1561 24.8858L22.191 24.9543L22.2253 25.0233L22.2589 25.0927L22.2917 25.1628L22.324 25.233L22.3555 25.3039L22.3864 25.3751L22.4165 25.4467L22.4459 25.5187L22.4745 25.5911L22.5025 25.6639L22.5297 25.7371L22.5562 25.8107L22.5819 25.8848L22.6069 25.959L22.6312 26.0337L22.6546 26.1088L22.6774 26.1841L22.6993 26.2599L22.7205 26.336L22.741 26.4123L22.7607 26.489L22.7795 26.566L22.7976 26.6434L22.8149 26.7208L22.8314 26.7988L22.8471 26.877L22.8619 26.9552L22.876 27.034L22.8893 27.113L22.9018 27.192L22.9134 27.2715L22.9242 27.3511L22.9341 27.431L22.9433 27.5111L22.9517 27.5914L22.9592 27.6718L22.9658 27.7524L22.9717 27.8334L22.9766 27.9143L22.9807 27.9955L22.9839 28.0768L22.9865 28.1583L22.9879 28.2399L22.9887 28.3216L22.9884 28.4034L22.9875 28.4854L22.9857 28.5675L22.9829 28.6496L22.9793 28.7319L22.9747 28.8141L22.9694 28.8965L22.9632 28.9789L22.956 29.0615L22.948 29.144L22.9392 29.2265L22.9293 29.3091L22.9187 29.3917L22.9072 29.4744L22.8949 29.5569L22.8816 29.6394L22.8673 29.722L22.8523 29.8045L22.8363 29.887L22.8195 29.9694L22.8017 30.0518L22.7831 30.1341L22.7636 30.2163L22.7431 30.2985L22.7218 30.3806L22.6997 30.4625L22.6766 30.5443L22.6526 30.6259L22.6277 30.7075L22.602 30.789L22.5754 30.8702L22.5478 30.9514L22.5195 31.0323L22.4901 31.113L22.4599 31.1936L22.4288 31.2739L22.3969 31.3542L22.364 31.434L22.3303 31.5138L22.2957 31.5933L22.2602 31.6726L22.2239 31.7515L22.1866 31.8302L22.1484 31.9087L22.1095 31.9869L22.0696 32.0647L22.0288 32.1423L21.9872 32.2195L21.9447 32.2965L21.9015 32.3731L21.8573 32.4494L21.8121 32.5254L21.7664 32.6009L21.7195 32.6762L21.672 32.7511L21.6235 32.8255L21.5741 32.8996L21.5241 32.9732L21.4731 33.0466L21.4213 33.1194L21.3686 33.1918L21.3152 33.2638L21.2609 33.3353L21.2058 33.4064L21.1499 33.477L21.0932 33.5472L21.0357 33.6168L20.9774 33.686L20.9183 33.7547L20.8583 33.8229L20.7976 33.8905L20.7361 33.9577L20.6738 34.0243L20.6108 34.0903L20.5469 34.1559L20.4824 34.2209L20.417 34.2852L20.351 34.3491L20.284 34.4123L20.2164 34.4748L20.1481 34.5369L20.079 34.5984L20.0093 34.6592L19.9387 34.7194L19.8675 34.7789L19.7955 34.8378L19.7228 34.8961L19.6495 34.9537L19.5755 35.0106L19.5008 35.0669L19.4253 35.1226L19.3493 35.1774L19.2725 35.2316L19.1952 35.2852L19.117 35.3379L19.0384 35.3901L18.959 35.4414L18.879 35.4921L18.7984 35.542L18.7172 35.5911L18.6353 35.6394L18.5529 35.6871L18.4698 35.734L18.3861 35.78L18.302 35.8254L18.2172 35.8699L18.1319 35.9137L18.0459 35.9565L17.9595 35.9987L17.8724 36.04L17.7849 36.0804L17.6969 36.1201L17.6082 36.1588L17.5192 36.1969L17.4296 36.2341L17.3395 36.2703L17.2488 36.3057L17.1578 36.3403L17.0662 36.374L16.9742 36.4068L16.8818 36.4388L16.7889 36.4698L16.6956 36.5L16.6019 36.5292L16.5078 36.5575L16.4131 36.5851L16.3182 36.6116L16.2229 36.6372L16.1272 36.6619L16.0311 36.6857L15.9346 36.7085L15.8378 36.7304L15.7407 36.7513L15.6432 36.7714L15.5454 36.7905L15.4473 36.8086L15.3489 36.8257L15.2501 36.842L15.1512 36.8571L15.0519 36.8714L14.9525 36.8847L14.8527 36.8971L14.7527 36.9084L14.6525 36.9186L14.552 36.9281L14.4513 36.9363L14.3504 36.9438L14.2493 36.9501L14.1481 36.9555L14.0467 36.9599L13.9451 36.9632L13.8433 36.9655L13.7415 36.9668L13.6395 36.9672L13.5374 36.9666L13.4352 36.9648L13.3328 36.962L13.2304 36.9583L13.1279 36.9535L13.0253 36.9477L12.9227 36.9409L12.8201 36.933L12.7174 36.9241L12.6147 36.9141L12.512 36.9032L12.4093 36.8911L12.3066 36.878L12.2039 36.8639L12.1013 36.8489L11.9986 36.8327L11.8961 36.8155L11.7936 36.7972L11.6913 36.7779L11.5889 36.7577L11.4867 36.7363L11.3846 36.7139L11.2826 36.6904L11.1808 36.6659L11.079 36.6404L10.9774 36.6138L10.8761 36.5861L10.7748 36.5575L10.6739 36.5278L10.573 36.4971L10.4724 36.4653L10.372 36.4325L10.2718 36.3987L10.1719 36.3638L10.0722 36.3279L9.9728 36.2909L9.87376 36.253L9.77486 36.214L9.67636 36.1739L9.57812 36.1329L9.48029 36.0908L9.38271 36.0477L9.28541 36.0036L9.18864 35.9585L9.092 35.9123L8.99589 35.8652L8.90018 35.817L8.80488 35.7679L8.70997 35.7177L8.61546 35.6666L8.52135 35.6144L8.42777 35.5613L8.33446 35.5071L8.24181 35.452L8.14957 35.396L8.05786 35.3389L7.96654 35.2808L7.87576 35.2219L7.78551 35.1618L7.69579 35.1009L7.60674 35.039L7.51809 34.9761L7.42997 34.9124L7.34251 34.8476L7.25559 34.7819L7.16933 34.7154L7.08361 34.6478L6.99855 34.5793L6.91403 34.51L6.83017 34.4397L6.74697 34.3685L6.66444 34.2963L6.58258 34.2234L6.50138 34.1495L6.42085 34.0747L6.34098 33.9991L6.26191 33.9226L6.18338 33.8452L6.10577 33.767L6.02884 33.6879L5.95256 33.6079L5.87709 33.5272L5.80241 33.4455L5.72853 33.3631L5.65532 33.2799L5.58304 33.1958L5.51143 33.111L5.44061 33.0253L5.37073 32.9387L5.30165 32.8516L5.23336 32.7636L5.16587 32.6748L5.09932 32.5852L5.03369 32.4949L4.96887 32.4039L4.90484 32.312L4.84175 32.2195L4.77958 32.1264L4.71835 32.0324L4.65805 31.9377L4.59855 31.8424L4.54011 31.7465L4.48248 31.6497L4.42591 31.5524L4.37026 31.4543L4.31556 31.3556L4.26178 31.2563L4.20907 31.1564L4.15729 31.0557L4.10644 30.9546L4.05665 30.8529L4.00793 30.7504L3.96015 30.6475L3.91343 30.5439L3.86777 30.4398L3.82304 30.3351L3.77938 30.2299L3.73679 30.1241L3.69526 30.0179L3.65479 29.911L3.61552 29.8037L3.57719 29.6959L3.53991 29.5877L3.50371 29.4789L3.4687 29.3696L3.43476 29.2599L3.40188 29.1499L3.37006 29.0392L3.33945 28.9282L3.31003 28.8168L3.28154 28.705L3.25439 28.5928L3.2283 28.4803L3.20328 28.3673L3.17945 28.254L3.15682 28.1403L3.13525 28.0264L3.11489 27.9121L3.09572 27.7974L3.07775 27.6826L3.06085 27.5673L3.04514 27.4519L3.03076 27.3361L3.01745 27.2201L3.00534 27.1038L2.99442 26.9873L2.98471 26.8706L2.97619 26.7537L2.96887 26.6366L2.96274 26.5193L2.95782 26.4019L2.95409 26.2842L2.95169 26.1664L2.9505 26.0486L2.95036 25.9305L2.95156 25.8123L2.95409 25.6941L2.95768 25.5758L2.96261 25.4573L2.96873 25.3389L2.97605 25.2204L2.98457 25.1018L2.99442 24.9832L3.00547 24.8646L3.01772 24.746L3.03129 24.6274L3.04607 24.5088L3.06204 24.3903L3.07935 24.2718L3.09785 24.1534L3.11768 24.035L3.13858 23.9167L3.16081 23.7985L3.18437 23.6804L3.20913 23.5625L3.23509 23.4447L3.26224 23.327L3.29073 23.2096L3.32041 23.0922L3.35143 22.9751L3.38364 22.8582L3.41705 22.7415L3.45166 22.6249L3.4876 22.5086L3.52474 22.3926L3.56308 22.2768L3.60274 22.1614L3.64361 22.0461L3.68567 21.9312L3.72893 21.8166L3.77353 21.7024L3.81931 21.5884L3.8663 21.4748L3.91449 21.3616L3.96387 21.2488L4.01459 21.1363L4.06637 21.0242L4.11948 20.9125L4.17366 20.8014L4.22917 20.6905L4.28574 20.5801L4.34364 20.4703L4.40261 20.3609L4.46291 20.252L4.52427 20.1435L4.58684 20.0356L4.6506 19.9283L4.71556 19.8214L4.78158 19.715L4.84893 19.6093L4.91735 19.5041L4.98684 19.3994L5.05752 19.2955L5.1294 19.192L5.20234 19.0893L5.27649 18.9872L5.3517 18.8856L5.42797 18.7847L5.50544 18.6846L5.58398 18.5851L5.66371 18.4863L5.74451 18.388L5.82624 18.2907L5.90917 18.194L5.99316 18.098L6.07822 18.0028L6.16434 17.9083L6.25153 17.8147L6.33978 17.7218L6.4291 17.6297L6.51935 17.5384L6.61067 17.4479L6.70304 17.3582L6.79636 17.2694L6.89073 17.1814L6.98604 17.0942L7.08228 17.0079L7.17958 16.9225L7.27795 16.8381L7.37712 16.7544L7.47736 16.6717L7.57839 16.59L7.68048 16.509L7.78338 16.4292L7.88734 16.3502L7.9921 16.2722L8.09779 16.1952L8.20441 16.1192L8.31183 16.0441L8.42019 15.9699L8.52947 15.8969L8.63942 15.8249L8.7503 15.7539L8.86211 15.6839L8.97459 15.6149L9.08801 15.547L9.20208 15.4802L9.31709 15.4145L9.43276 15.3498L9.54924 15.2861L9.66651 15.2237L9.78445 15.1624L9.90318 15.1021L10.0226 15.043L10.1428 14.9849L10.2636 14.9281L10.3852 14.8723L10.5074 14.8177L10.6302 14.7644L10.7539 14.712L10.8781 14.6609L11.0028 14.6111L11.1283 14.5624L11.2544 14.5149L11.381 14.4686L11.5082 14.4236L11.6362 14.3797L11.7645 14.3371L11.8935 14.2957L12.0228 14.2555L12.1529 14.2166L12.2833 14.1789L12.4143 14.1426L12.5458 14.1074L12.6778 14.0735L12.8102 14.0409L12.9431 14.0096L13.0764 13.9797L13.2101 13.9509L13.3442 13.9235L13.4787 13.8974L13.5462 13.8849ZM15.1993 23.5492L13.665 23.9158L13.5749 16.3158L13.5026 16.332L13.3938 16.3577L13.285 16.3845L13.1771 16.4121L13.0692 16.4409L12.9621 16.4707L12.8549 16.5017L12.7488 16.5334L12.6425 16.5664L12.5375 16.6001L12.4322 16.6351L12.3275 16.671L12.2234 16.7079L12.1198 16.7457L12.017 16.7845L11.9144 16.8244L11.8123 16.8651L11.7108 16.9068L11.6095 16.9496L11.5096 16.993L11.4096 17.0378L11.3106 17.0832L11.2117 17.1297L11.1137 17.177L11.016 17.2253L10.9194 17.2744L10.8231 17.3245L10.7275 17.3755L10.6326 17.4272L10.5383 17.48L10.4445 17.5336L10.3519 17.5879L10.2591 17.6434L10.1675 17.6995L10.0768 17.7564L9.98651 17.8142L9.89679 17.8729L9.808 17.9324L9.71989 17.9927L9.63243 18.0537L9.54591 18.1154L9.45979 18.1781L9.37459 18.2416L9.2902 18.3058L9.20647 18.3707L9.12368 18.4362L9.04168 18.5027L8.96022 18.5699L8.87955 18.6379L8.79995 18.7063L8.72102 18.7757L8.64288 18.8456L8.56554 18.9162L8.489 18.9877L8.41339 19.0597L8.33859 19.1323L8.26444 19.2058L8.19137 19.2796L8.11909 19.3543L8.04774 19.4294L7.97692 19.5055L7.90731 19.5818L7.83849 19.6589L7.77047 19.7366L7.70351 19.8146L7.63722 19.8935L7.57213 19.9726L7.50757 20.0527L7.44421 20.133L7.38152 20.2141L7.31988 20.2957L7.25919 20.3775L7.19929 20.4599L7.14045 20.5429L7.08241 20.6265L7.02531 20.7103L6.96927 20.7948L6.91416 20.8795L6.85998 20.9647L6.80661 21.0505L6.75443 21.1365L6.70291 21.2233L6.6526 21.31L6.60308 21.3974L6.55449 21.4852L6.5071 21.5731L6.46052 21.6615L6.41499 21.7503L6.37027 21.8396L6.32674 21.9288L6.28401 22.0188L6.24235 22.1088L6.20175 22.1992L6.16195 22.2898L6.12321 22.3809L6.08554 22.4719L6.0488 22.5635L6.01313 22.6552L5.97825 22.7472L5.94457 22.8392L5.91183 22.9317L5.88002 23.0243L5.84927 23.1171L5.81945 23.21L5.7907 23.3033L5.76288 23.3966L5.73626 23.4899L5.71043 23.5837L5.68554 23.6775L5.66185 23.7713L5.63908 23.8653L5.61725 23.9594L5.59649 24.0537L5.57679 24.1481L5.55802 24.2423L5.54018 24.3367L5.52341 24.4313L5.5077 24.5257L5.49293 24.6202L5.47908 24.715L5.4663 24.8094L5.45459 24.9041L5.44381 24.9985L5.43396 25.0931L5.42517 25.1879L5.41732 25.2823L5.41053 25.3768L5.40467 25.4713L5.39975 25.5656L5.39589 25.6598L5.39296 25.7539L5.3911 25.8482L5.39003 25.9421L5.39017 26.036L5.3911 26.1297L5.39309 26.2234L5.39602 26.3168L5.39988 26.4102L5.40467 26.5033L5.41053 26.5962L5.41732 26.689L5.42504 26.7817L5.43369 26.874L5.44328 26.9664L5.45379 27.0581L5.46524 27.1501L5.47762 27.2414L5.49106 27.3329L5.50531 27.4238L5.52048 27.5146L5.53659 27.6052L5.55363 27.6953L5.5716 27.7853L5.59036 27.8748L5.6102 27.9642L5.63083 28.0531L5.6524 28.1419L5.67476 28.2301L5.69819 28.3183L5.72228 28.4058L5.7473 28.4932L5.77326 28.58L5.80002 28.6667L5.8277 28.7528L5.85619 28.8384L5.88561 28.924L5.91582 29.0089L5.94684 29.0933L5.97865 29.1775L6.0114 29.2613L6.04494 29.3445L6.07928 29.4273L6.11429 29.5095L6.15037 29.5915L6.1871 29.673L6.22464 29.7539L6.26298 29.8343L6.30198 29.9142L6.34204 29.9939L6.38251 30.0727L6.42391 30.1511L6.46611 30.2291L6.5091 30.3065L6.55276 30.3834L6.59709 30.4598L6.64221 30.5354L6.68814 30.6108L6.73459 30.6854L6.78185 30.7594L6.8299 30.833L6.87848 30.906L6.92787 30.9785L6.97779 31.05L7.0285 31.1214L7.07988 31.1919L7.1318 31.2618L7.18464 31.3313L7.23789 31.4L7.2918 31.468L7.34637 31.5355L7.40162 31.6024L7.45726 31.6685L7.51383 31.7341L7.5708 31.799L7.6283 31.8632L7.68674 31.9268L7.74531 31.9895L7.80468 32.052L7.86458 32.1134L7.92488 32.1743L7.98597 32.2345L8.04747 32.2939L8.1095 32.3528L8.17207 32.4108L8.23516 32.4682L8.29879 32.5249L8.36281 32.5808L8.42737 32.636L8.49233 32.6906L8.55782 32.7444L8.62385 32.7975L8.6904 32.8498L8.75709 32.9013L8.82444 32.9522L8.8922 33.0024L8.96035 33.0518L9.0289 33.1003L9.09786 33.1483L9.16721 33.1954L9.23696 33.2417L9.30697 33.2872L9.37739 33.3321L9.44847 33.3763L9.51955 33.4194L9.59104 33.462L9.66305 33.5038L9.73506 33.5447L9.80747 33.5849L9.88055 33.6244L9.95363 33.663L10.027 33.7008L10.1006 33.7378L10.1747 33.7741L10.2487 33.8096L10.3234 33.8443L10.3981 33.8782L10.4729 33.9113L10.5482 33.9436L10.6237 33.9751L10.6992 34.0059L10.7751 34.0358L10.8511 34.0649L10.9275 34.0932L11.0036 34.1208L11.0804 34.1475L11.157 34.1734L11.2338 34.1985L11.3108 34.2229L11.388 34.2464L11.4652 34.2691L11.5426 34.291L11.6202 34.3121L11.6978 34.3324L11.7754 34.3519L11.8531 34.3706L11.9309 34.3885L12.0087 34.4055L12.0867 34.4219L12.1647 34.4373L12.2428 34.4521L12.3208 34.4659L12.3989 34.4791L12.477 34.4914L12.5552 34.5029L12.633 34.5136L12.7112 34.5234L12.7892 34.5326L12.8673 34.541L12.9453 34.5485L13.0233 34.5552L13.1012 34.5612L13.1789 34.5664L13.2568 34.5708L13.3344 34.5744L13.4119 34.5773L13.4896 34.5793L13.5668 34.5807L13.644 34.5812L13.7212 34.5809L13.7982 34.58L13.8752 34.5781L13.952 34.5756L14.0284 34.5724L14.1048 34.5683L14.1814 34.5635L14.2573 34.5579L14.3333 34.5517L14.4089 34.5446L14.4845 34.5369L14.5598 34.5282L14.6348 34.519L14.7098 34.5091L14.7844 34.4983L14.8587 34.4868L14.9331 34.4747L15.0069 34.4618L15.0806 34.4482L15.154 34.4339L15.2272 34.4188L15.2999 34.4031L15.3723 34.3867L15.4447 34.3696L15.5168 34.3517L15.5884 34.3334L15.6597 34.3142L15.7307 34.2943L15.8016 34.2737L15.8719 34.2526L15.9417 34.2307L16.0117 34.2081L16.0809 34.1849L16.1498 34.1612L16.2184 34.1367L16.2865 34.1116L16.3546 34.0858L16.4221 34.0594L16.489 34.0324L16.5557 34.0048L16.622 33.9765L16.688 33.9476L16.7532 33.9182L16.8185 33.8881L16.883 33.8575L16.947 33.8262L17.0109 33.7944L17.074 33.762L17.137 33.729L17.1994 33.6954L17.2613 33.6613L17.3227 33.6267L17.3838 33.5914L17.4444 33.5556L17.5043 33.5192L17.5638 33.4824L17.6229 33.445L17.6814 33.4072L17.7396 33.3687L17.7971 33.3298L17.8542 33.2903L17.9108 33.2504L17.9667 33.21L18.0222 33.169L18.0772 33.1276L18.1316 33.0857L18.1855 33.0434L18.239 33.0005L18.2917 32.9574L18.3441 32.9137L18.3957 32.8695L18.4468 32.8249L18.4975 32.7799L18.5476 32.7344L18.5971 32.6886L18.6458 32.6424L18.6943 32.5957L18.7421 32.5486L18.7893 32.5012L18.8359 32.4534L18.8818 32.4051L18.9272 32.3566L18.9722 32.3075L19.0163 32.2584L19.0601 32.2086L19.1031 32.1586L19.1454 32.1084L19.1874 32.0575L19.2284 32.0067L19.2692 31.9553L19.3092 31.9038L19.3485 31.8519L19.3874 31.7996L19.4255 31.7473L19.463 31.6943L19.5 31.6412L19.5362 31.5881L19.5719 31.5343L19.607 31.4805L19.6412 31.4265L19.675 31.3722L19.7082 31.3176L19.7407 31.2627L19.7726 31.2078L19.8038 31.1525L19.8344 31.0971L19.8643 31.0414L19.8936 30.9857L19.9222 30.9297L19.9503 30.8735L19.9777 30.8172L20.0045 30.7605L20.0306 30.7039L20.056 30.6471L20.0808 30.5903L20.105 30.533L20.1284 30.4759L20.1514 30.4183L20.1735 30.3612L20.1952 30.3031L20.216 30.246L20.2364 30.188L20.2561 30.13L20.275 30.0722L20.2933 30.0141L20.311 29.9562L20.3282 29.8977L20.3445 29.8399L20.3604 29.7812L20.3755 29.7234L20.39 29.6649L20.4038 29.6063L20.417 29.5481L20.4295 29.4901L20.4415 29.4312L20.4528 29.3731L20.4635 29.3144L20.4734 29.2563L20.4829 29.198L20.4917 29.1396L20.4998 29.0812L20.5072 29.0229L20.5142 28.9648L20.5204 28.9069L20.526 28.8485L20.5311 28.7906L20.5355 28.7325L20.5392 28.6746L20.5424 28.6169L20.5449 28.5592L20.5468 28.5019L20.5481 28.4441L20.5489 28.3865L20.549 28.3294L20.5485 28.2722L20.5474 28.2153L20.5457 28.1584L20.5435 28.1013L20.5405 28.0453L20.5371 27.9881L20.5331 27.9323L20.5284 27.8762L20.5232 27.8198L20.5174 27.764L20.5111 27.7088L20.5041 27.6527L20.4966 27.5979L20.4885 27.5427L20.48 27.4882L20.4706 27.4332L20.4609 27.3787L20.4507 27.3246L20.4399 27.2707L20.4284 27.2167L20.4165 27.1633L20.4041 27.1099L20.391 27.0569L20.3776 27.0044L20.3634 26.9514L20.349 26.8995L20.3338 26.847L20.3182 26.7955L20.3021 26.744L20.2855 26.6929L20.2683 26.6419L20.2506 26.591L20.2326 26.541L20.214 26.4911L20.1948 26.441L20.1753 26.3918L20.1552 26.3423L20.1348 26.2939L20.1136 26.2451L20.0923 26.197L20.0704 26.1494L20.048 26.1017L20.0253 26.0546L20.002 26.0078L19.9783 25.9612L19.9542 25.9151L19.9295 25.8693L19.9047 25.8239L19.8792 25.7788L19.8533 25.7341L19.8272 25.6898L19.8006 25.6458L19.7734 25.602L19.746 25.559L19.7182 25.5162L19.6899 25.4737L19.6613 25.4315L19.6324 25.39L19.603 25.3486L19.5733 25.3077L19.5433 25.2673L19.5128 25.2272L19.4822 25.1875L19.4509 25.1481L19.4195 25.1094L19.3876 25.0709L19.3556 25.0328L19.3231 24.9952L19.2905 24.958L19.2573 24.9213L19.2239 24.885L19.1902 24.8489L19.1563 24.8135L19.122 24.7785L19.0873 24.7437L19.0526 24.7097L19.0175 24.676L18.9822 24.6427L18.9462 24.6097L18.9106 24.5773L18.8744 24.5453L18.838 24.5138L18.8013 24.4827L18.7644 24.4522L18.7273 24.422L18.69 24.3923L18.6525 24.363L18.6147 24.3341L18.5767 24.3059L18.5385 24.278L18.5001 24.2505L18.4616 24.2237L18.4229 24.197L18.384 24.1711L18.3449 24.1455L18.3055 24.1204L18.2662 24.0957L18.2264 24.0715L18.1867 24.0478L18.1469 24.0247L18.1068 24.0019L18.0665 23.9795L18.0263 23.9577L17.986 23.9363L17.9454 23.9154L17.9049 23.895L17.8639 23.8749L17.8232 23.8555L17.7822 23.8366L17.7412 23.8179L17.7001 23.7998L17.6587 23.7821L17.6177 23.7651L17.5761 23.7485L17.5346 23.7322L17.4932 23.7165L17.4517 23.7012L17.4101 23.6864L17.3685 23.672L17.3268 23.6581L17.2853 23.6448L17.2435 23.6317L17.2017 23.6192L17.1602 23.6072L17.1181 23.5956L17.0766 23.5846L17.0348 23.5739L16.993 23.5637L16.9512 23.554L16.9095 23.5447L16.8677 23.5359L16.826 23.5275L16.7845 23.5195L16.743 23.512L16.7012 23.505L16.6599 23.4985L16.6181 23.4923L16.577 23.4866L16.5355 23.4813L16.4942 23.4765L16.4532 23.4721L16.4119 23.4683L16.3709 23.4647L16.3299 23.4616L16.2891 23.4589L16.2482 23.4567L16.2075 23.4549L16.1671 23.4536L16.1265 23.4525L16.0862 23.452L16.0459 23.4519L16.0058 23.4523L15.9657 23.4529L15.9259 23.454L15.8861 23.4556L15.8467 23.4575L15.8071 23.4599L15.7679 23.4625L15.7288 23.4656L15.6898 23.4692L15.6511 23.473L15.6122 23.4773L15.5739 23.482L15.5355 23.487L15.4975 23.4925L15.4594 23.4983L15.4217 23.5045L15.3841 23.511L15.3469 23.5179L15.3095 23.5252L15.2726 23.5328L15.2358 23.5408L15.1993 23.5492Z" fill="#C4C4C4"/>
</g>
<defs>
<clipPath id="clip0_1_785">
<rect width="204.992" height="58.5691" fill="white" transform="translate(-79)"/>
</clipPath>
</defs>
</svg>
