<svg width="56" height="56" viewBox="0 0 56 56" fill="none" xmlns="http://www.w3.org/2000/svg">
<rect x="0.861023" y="0.5" width="54.014" height="54.014" rx="14.5" fill="#119200" fill-opacity="0.19"/>
<rect x="0.861023" y="0.5" width="54.014" height="54.014" rx="14.5" stroke="white"/>
<rect x="0.861023" y="0.5" width="54.014" height="54.014" rx="14.5" stroke="#119200"/>
<path d="M22.19 25.61L21.327 25.16C21.2571 25.1236 21.1794 25.1046 21.1005 25.1046C21.0217 25.1046 20.944 25.1236 20.874 25.16L18.859 26.21C18.7791 26.2517 18.6892 26.2706 18.5993 26.2646C18.5093 26.2586 18.4227 26.228 18.349 26.176C18.2763 26.1244 18.2195 26.0533 18.1854 25.9708C18.1513 25.8884 18.1411 25.798 18.156 25.71L18.543 23.464C18.5561 23.3883 18.5505 23.3106 18.5266 23.2375C18.5027 23.1645 18.4613 23.0984 18.406 23.045L16.762 21.454C16.6983 21.3923 16.6532 21.3139 16.632 21.2278C16.6108 21.1417 16.6142 21.0513 16.642 20.967C16.6705 20.8824 16.722 20.8074 16.7907 20.7503C16.8594 20.6933 16.9426 20.6565 17.031 20.644L19.294 20.317C19.3714 20.3061 19.4449 20.2765 19.5083 20.2309C19.5717 20.1852 19.6231 20.1249 19.658 20.055L20.668 18.021C20.7084 17.9406 20.7704 17.873 20.8471 17.8258C20.9237 17.7786 21.012 17.7538 21.102 17.754M33.546 25.61L34.409 25.159C34.479 25.1226 34.5567 25.1036 34.6355 25.1036C34.7144 25.1036 34.7921 25.1226 34.862 25.159L36.877 26.21C36.957 26.2517 37.0468 26.2706 37.1368 26.2646C37.2268 26.2586 37.3133 26.228 37.387 26.176C37.4598 26.1244 37.5165 26.0533 37.5507 25.9708C37.5848 25.8884 37.595 25.798 37.58 25.71L37.193 23.464C37.18 23.3883 37.1856 23.3106 37.2095 23.2375C37.2334 23.1645 37.2748 23.0984 37.33 23.045L38.974 21.45C39.0378 21.3883 39.0829 21.3099 39.1041 21.2238C39.1253 21.1377 39.1218 21.0473 39.094 20.963C39.0656 20.8784 39.0141 20.8034 38.9454 20.7463C38.8767 20.6893 38.7935 20.6525 38.705 20.64L36.442 20.313C36.3647 20.3021 36.2912 20.2725 36.2278 20.2269C36.1644 20.1812 36.113 20.1209 36.078 20.051L35.068 18.021C35.0277 17.9406 34.9657 17.873 34.889 17.8258C34.8123 17.7786 34.724 17.7538 34.634 17.754M32.895 38.753C32.2682 38.0366 31.4955 37.4625 30.6287 37.0691C29.7619 36.6757 28.8209 36.4722 27.869 36.4722C26.9171 36.4722 25.9762 36.6757 25.1094 37.0691C24.2425 37.4625 23.4698 38.0366 22.843 38.753M27.434 16.527C27.4745 16.4467 27.5366 16.3791 27.6132 16.3319C27.6898 16.2848 27.778 16.2598 27.868 16.2598C27.958 16.2598 28.0463 16.2848 28.1229 16.3319C28.1995 16.3791 28.2615 16.4467 28.302 16.527L29.311 18.561C29.3459 18.6308 29.3971 18.691 29.4603 18.7366C29.5236 18.7823 29.5969 18.8119 29.674 18.823L31.938 19.15C32.0265 19.1625 32.1097 19.1993 32.1784 19.2563C32.2471 19.3134 32.2986 19.3884 32.327 19.473C32.3549 19.5574 32.3584 19.6479 32.337 19.734C32.3156 19.8202 32.2702 19.8986 32.206 19.96L30.568 21.554C30.5127 21.6074 30.4712 21.6735 30.4472 21.7465C30.4232 21.8195 30.4173 21.8972 30.43 21.973L30.818 24.22C30.8327 24.3079 30.8222 24.3982 30.7879 24.4805C30.7536 24.5627 30.6968 24.6336 30.624 24.685C30.5507 24.7374 30.4643 24.7684 30.3745 24.7745C30.2846 24.7807 30.1948 24.7618 30.115 24.72L28.094 23.666C28.0244 23.6291 27.9468 23.6098 27.868 23.6098C27.7892 23.6098 27.7116 23.6291 27.642 23.666L25.626 24.72C25.5463 24.7618 25.4564 24.7807 25.3666 24.7745C25.2767 24.7684 25.1903 24.7374 25.117 24.685C25.0443 24.6336 24.9874 24.5627 24.9531 24.4805C24.9188 24.3982 24.9084 24.3079 24.923 24.22L25.311 21.973C25.3238 21.8972 25.3179 21.8195 25.2939 21.7465C25.2698 21.6735 25.2284 21.6074 25.173 21.554L23.53 19.96C23.4659 19.8986 23.4205 19.8202 23.3991 19.734C23.3777 19.6479 23.3811 19.5574 23.409 19.473C23.4375 19.3884 23.489 19.3134 23.5577 19.2563C23.6264 19.1993 23.7096 19.1625 23.798 19.15L26.062 18.823C26.1392 18.8119 26.2125 18.7823 26.2757 18.7366C26.3389 18.691 26.3902 18.6308 26.425 18.561L27.434 16.527ZM23.743 30.846C23.743 31.9401 24.1776 32.9893 24.9512 33.7629C25.7248 34.5364 26.774 34.971 27.868 34.971C28.9621 34.971 30.0113 34.5364 30.7849 33.7629C31.5584 32.9893 31.993 31.9401 31.993 30.846C31.993 29.752 31.5584 28.7028 30.7849 27.9292C30.0113 27.1556 28.9621 26.721 27.868 26.721C26.774 26.721 25.7248 27.1556 24.9512 27.9292C24.1776 28.7028 23.743 29.752 23.743 30.846Z" stroke="white" stroke-linecap="round" stroke-linejoin="round"/>
</svg>
