<svg width="40" height="40" viewBox="0 0 40 40" fill="none" xmlns="http://www.w3.org/2000/svg">
<rect width="40" height="40" rx="20" fill="#F7F7F7"/>
<path d="M30.979 13.6887C30.2619 12.4522 28.369 12.1737 25.4947 12.8768C24.1639 11.8479 22.5713 11.2128 20.8977 11.0436C19.2241 10.8745 17.5366 11.1781 16.0269 11.92C14.5172 12.6619 13.2458 13.8124 12.3572 15.2407C11.4686 16.669 10.9984 18.3178 11 20C11.0001 20.3858 11.0245 20.7713 11.0731 21.154C8.47717 23.8437 8.51467 25.4375 9.02186 26.3112C9.49998 27.14 10.4975 27.5 11.81 27.5C12.7213 27.4811 13.6271 27.3553 14.509 27.125C15.8399 28.1529 17.4324 28.7872 19.1056 28.9556C20.7788 29.1241 22.4657 28.8201 23.9748 28.0781C25.4839 27.3361 26.7547 26.1858 27.643 24.7579C28.5312 23.33 29.0014 21.6816 29 20C29.0002 19.616 28.9761 19.2324 28.9278 18.8515C30.0997 17.6328 30.8797 16.475 31.145 15.484C31.3278 14.7978 31.2725 14.194 30.979 13.6887ZM20 12.5C21.6987 12.5017 23.3466 13.0793 24.6747 14.1384C26.0029 15.1975 26.9327 16.6755 27.3125 18.3312C25.7131 19.8368 23.5484 21.3809 21.4934 22.5622C18.9106 24.0443 16.67 24.9687 14.8831 25.475C13.7825 24.4485 13.0165 23.1145 12.6847 21.6466C12.3529 20.1787 12.4708 18.6449 13.0229 17.2449C13.575 15.8449 14.5358 14.6436 15.7802 13.7973C17.0247 12.951 18.495 12.4989 20 12.5ZM10.3194 25.5584C10.1825 25.3231 10.2584 24.8797 10.5275 24.3397C10.7936 23.8337 11.1173 23.3603 11.4922 22.9287C11.8638 24.0054 12.4364 25.0018 13.1797 25.865C11.5625 26.1368 10.5537 25.9634 10.3194 25.5584ZM20 27.5C18.7354 27.5013 17.4913 27.1806 16.385 26.5681C18.4157 25.8499 20.3751 24.9441 22.2378 23.8625C24.2609 22.7009 26.0515 21.4418 27.4944 20.1987C27.4409 22.1517 26.6282 24.0069 25.2288 25.3702C23.8294 26.7335 21.9537 27.4975 20 27.5ZM29.6956 15.0959C29.5362 15.6875 29.1153 16.3643 28.5115 17.0768C28.1409 15.9988 27.5682 15.0014 26.824 14.1378C28.1562 13.9175 29.39 13.9343 29.6834 14.4415C29.7678 14.5887 29.7725 14.809 29.6956 15.0959Z" fill="#020202"/>
</svg>
