<svg width="40" height="40" viewBox="0 0 40 40" fill="none" xmlns="http://www.w3.org/2000/svg">
<rect width="40" height="40" rx="20" fill="#F7F7F7"/>
<path d="M26.15 20.4724L21.3144 18.6855L19.5332 13.8462C19.4277 13.5596 19.2368 13.3123 18.9864 13.1376C18.7359 12.9629 18.4379 12.8692 18.1325 12.8692C17.8272 12.8692 17.5292 12.9629 17.2787 13.1376C17.0282 13.3123 16.8374 13.5596 16.7319 13.8462L14.9394 18.6855L10.1 20.4668C9.81348 20.5723 9.56616 20.7631 9.39147 21.0136C9.21677 21.264 9.12311 21.5621 9.12311 21.8674C9.12311 22.1728 9.21677 22.4708 9.39147 22.7213C9.56616 22.9717 9.81348 23.1626 10.1 23.268L14.9394 25.0605L16.7207 29.8999C16.8262 30.1865 17.017 30.4338 17.2675 30.6085C17.5179 30.7832 17.8159 30.8769 18.1213 30.8769C18.4267 30.8769 18.7247 30.7832 18.9751 30.6085C19.2256 30.4338 19.4164 30.1865 19.5219 29.8999L21.3144 25.0605L26.1538 23.2793C26.4404 23.1738 26.6877 22.983 26.8624 22.7325C27.0371 22.4821 27.1307 22.184 27.1307 21.8787C27.1307 21.5733 27.0371 21.2753 26.8624 21.0248C26.6877 20.7744 26.4404 20.5835 26.1538 20.478L26.15 20.4724ZM20.4707 23.7687C20.3689 23.8062 20.2764 23.8654 20.1997 23.9421C20.123 24.0188 20.0638 24.1112 20.0263 24.213L18.1269 29.359L16.2313 24.2168C16.1938 24.1139 16.1343 24.0205 16.0569 23.9431C15.9795 23.8657 15.886 23.8061 15.7832 23.7687L10.641 21.873L15.7832 19.9774C15.886 19.94 15.9795 19.8804 16.0569 19.803C16.1343 19.7256 16.1938 19.6322 16.2313 19.5293L18.1269 14.3871L20.0225 19.5293C20.0601 19.6311 20.1192 19.7236 20.1959 19.8003C20.2727 19.877 20.3651 19.9362 20.4669 19.9737L25.6129 21.873L20.4707 23.7687ZM21.1269 12.123C21.1269 11.9241 21.2059 11.7334 21.3466 11.5927C21.4872 11.4521 21.678 11.373 21.8769 11.373H23.3769V9.87305C23.3769 9.67413 23.4559 9.48337 23.5966 9.34272C23.7372 9.20206 23.928 9.12305 24.1269 9.12305C24.3258 9.12305 24.5166 9.20206 24.6572 9.34272C24.7979 9.48337 24.8769 9.67413 24.8769 9.87305V11.373H26.3769C26.5758 11.373 26.7666 11.4521 26.9072 11.5927C27.0479 11.7334 27.1269 11.9241 27.1269 12.123C27.1269 12.322 27.0479 12.5127 26.9072 12.6534C26.7666 12.794 26.5758 12.873 26.3769 12.873H24.8769V14.373C24.8769 14.572 24.7979 14.7627 24.6572 14.9034C24.5166 15.044 24.3258 15.123 24.1269 15.123C23.928 15.123 23.7372 15.044 23.5966 14.9034C23.4559 14.7627 23.3769 14.572 23.3769 14.373V12.873H21.8769C21.678 12.873 21.4872 12.794 21.3466 12.6534C21.2059 12.5127 21.1269 12.322 21.1269 12.123ZM30.8769 16.623C30.8769 16.822 30.7979 17.0127 30.6572 17.1534C30.5166 17.294 30.3258 17.373 30.1269 17.373H29.3769V18.123C29.3769 18.322 29.2979 18.5127 29.1572 18.6534C29.0166 18.794 28.8258 18.873 28.6269 18.873C28.428 18.873 28.2372 18.794 28.0966 18.6534C27.9559 18.5127 27.8769 18.322 27.8769 18.123V17.373H27.1269C26.928 17.373 26.7372 17.294 26.5966 17.1534C26.4559 17.0127 26.3769 16.822 26.3769 16.623C26.3769 16.4241 26.4559 16.2334 26.5966 16.0927C26.7372 15.9521 26.928 15.873 27.1269 15.873H27.8769V15.123C27.8769 14.9241 27.9559 14.7334 28.0966 14.5927C28.2372 14.4521 28.428 14.373 28.6269 14.373C28.8258 14.373 29.0166 14.4521 29.1572 14.5927C29.2979 14.7334 29.3769 14.9241 29.3769 15.123V15.873H30.1269C30.3258 15.873 30.5166 15.9521 30.6572 16.0927C30.7979 16.2334 30.8769 16.4241 30.8769 16.623Z" fill="#020202"/>
</svg>
